G04 #@! TF.GenerationSoftware,KiCad,Pcbnew,(5.1.5)-3*
G04 #@! TF.CreationDate,2020-11-19T18:47:54+01:00*
G04 #@! TF.ProjectId,Sensor_2.0,53656e73-6f72-45f3-922e-302e6b696361,rev?*
G04 #@! TF.SameCoordinates,Original*
G04 #@! TF.FileFunction,Soldermask,Top*
G04 #@! TF.FilePolarity,Negative*
%FSLAX46Y46*%
G04 Gerber Fmt 4.6, Leading zero omitted, Abs format (unit mm)*
G04 Created by KiCad (PCBNEW (5.1.5)-3) date 2020-11-19 18:47:54*
%MOMM*%
%LPD*%
G04 APERTURE LIST*
%ADD10C,0.100000*%
%ADD11R,0.600000X0.700000*%
%ADD12C,1.100000*%
%ADD13R,1.700000X1.700000*%
%ADD14R,1.473200X0.355600*%
%ADD15R,1.473200X0.558800*%
%ADD16R,0.600000X0.800000*%
G04 APERTURE END LIST*
D10*
G36*
X123577691Y-80638553D02*
G01*
X123598926Y-80641703D01*
X123619750Y-80646919D01*
X123639962Y-80654151D01*
X123659368Y-80663330D01*
X123677781Y-80674366D01*
X123695024Y-80687154D01*
X123710930Y-80701570D01*
X123725346Y-80717476D01*
X123738134Y-80734719D01*
X123749170Y-80753132D01*
X123758349Y-80772538D01*
X123765581Y-80792750D01*
X123770797Y-80813574D01*
X123773947Y-80834809D01*
X123775000Y-80856250D01*
X123775000Y-81293750D01*
X123773947Y-81315191D01*
X123770797Y-81336426D01*
X123765581Y-81357250D01*
X123758349Y-81377462D01*
X123749170Y-81396868D01*
X123738134Y-81415281D01*
X123725346Y-81432524D01*
X123710930Y-81448430D01*
X123695024Y-81462846D01*
X123677781Y-81475634D01*
X123659368Y-81486670D01*
X123639962Y-81495849D01*
X123619750Y-81503081D01*
X123598926Y-81508297D01*
X123577691Y-81511447D01*
X123556250Y-81512500D01*
X123043750Y-81512500D01*
X123022309Y-81511447D01*
X123001074Y-81508297D01*
X122980250Y-81503081D01*
X122960038Y-81495849D01*
X122940632Y-81486670D01*
X122922219Y-81475634D01*
X122904976Y-81462846D01*
X122889070Y-81448430D01*
X122874654Y-81432524D01*
X122861866Y-81415281D01*
X122850830Y-81396868D01*
X122841651Y-81377462D01*
X122834419Y-81357250D01*
X122829203Y-81336426D01*
X122826053Y-81315191D01*
X122825000Y-81293750D01*
X122825000Y-80856250D01*
X122826053Y-80834809D01*
X122829203Y-80813574D01*
X122834419Y-80792750D01*
X122841651Y-80772538D01*
X122850830Y-80753132D01*
X122861866Y-80734719D01*
X122874654Y-80717476D01*
X122889070Y-80701570D01*
X122904976Y-80687154D01*
X122922219Y-80674366D01*
X122940632Y-80663330D01*
X122960038Y-80654151D01*
X122980250Y-80646919D01*
X123001074Y-80641703D01*
X123022309Y-80638553D01*
X123043750Y-80637500D01*
X123556250Y-80637500D01*
X123577691Y-80638553D01*
G37*
G36*
X123577691Y-79063553D02*
G01*
X123598926Y-79066703D01*
X123619750Y-79071919D01*
X123639962Y-79079151D01*
X123659368Y-79088330D01*
X123677781Y-79099366D01*
X123695024Y-79112154D01*
X123710930Y-79126570D01*
X123725346Y-79142476D01*
X123738134Y-79159719D01*
X123749170Y-79178132D01*
X123758349Y-79197538D01*
X123765581Y-79217750D01*
X123770797Y-79238574D01*
X123773947Y-79259809D01*
X123775000Y-79281250D01*
X123775000Y-79718750D01*
X123773947Y-79740191D01*
X123770797Y-79761426D01*
X123765581Y-79782250D01*
X123758349Y-79802462D01*
X123749170Y-79821868D01*
X123738134Y-79840281D01*
X123725346Y-79857524D01*
X123710930Y-79873430D01*
X123695024Y-79887846D01*
X123677781Y-79900634D01*
X123659368Y-79911670D01*
X123639962Y-79920849D01*
X123619750Y-79928081D01*
X123598926Y-79933297D01*
X123577691Y-79936447D01*
X123556250Y-79937500D01*
X123043750Y-79937500D01*
X123022309Y-79936447D01*
X123001074Y-79933297D01*
X122980250Y-79928081D01*
X122960038Y-79920849D01*
X122940632Y-79911670D01*
X122922219Y-79900634D01*
X122904976Y-79887846D01*
X122889070Y-79873430D01*
X122874654Y-79857524D01*
X122861866Y-79840281D01*
X122850830Y-79821868D01*
X122841651Y-79802462D01*
X122834419Y-79782250D01*
X122829203Y-79761426D01*
X122826053Y-79740191D01*
X122825000Y-79718750D01*
X122825000Y-79281250D01*
X122826053Y-79259809D01*
X122829203Y-79238574D01*
X122834419Y-79217750D01*
X122841651Y-79197538D01*
X122850830Y-79178132D01*
X122861866Y-79159719D01*
X122874654Y-79142476D01*
X122889070Y-79126570D01*
X122904976Y-79112154D01*
X122922219Y-79099366D01*
X122940632Y-79088330D01*
X122960038Y-79079151D01*
X122980250Y-79071919D01*
X123001074Y-79066703D01*
X123022309Y-79063553D01*
X123043750Y-79062500D01*
X123556250Y-79062500D01*
X123577691Y-79063553D01*
G37*
G36*
X111565191Y-77626053D02*
G01*
X111586426Y-77629203D01*
X111607250Y-77634419D01*
X111627462Y-77641651D01*
X111646868Y-77650830D01*
X111665281Y-77661866D01*
X111682524Y-77674654D01*
X111698430Y-77689070D01*
X111712846Y-77704976D01*
X111725634Y-77722219D01*
X111736670Y-77740632D01*
X111745849Y-77760038D01*
X111753081Y-77780250D01*
X111758297Y-77801074D01*
X111761447Y-77822309D01*
X111762500Y-77843750D01*
X111762500Y-78356250D01*
X111761447Y-78377691D01*
X111758297Y-78398926D01*
X111753081Y-78419750D01*
X111745849Y-78439962D01*
X111736670Y-78459368D01*
X111725634Y-78477781D01*
X111712846Y-78495024D01*
X111698430Y-78510930D01*
X111682524Y-78525346D01*
X111665281Y-78538134D01*
X111646868Y-78549170D01*
X111627462Y-78558349D01*
X111607250Y-78565581D01*
X111586426Y-78570797D01*
X111565191Y-78573947D01*
X111543750Y-78575000D01*
X111106250Y-78575000D01*
X111084809Y-78573947D01*
X111063574Y-78570797D01*
X111042750Y-78565581D01*
X111022538Y-78558349D01*
X111003132Y-78549170D01*
X110984719Y-78538134D01*
X110967476Y-78525346D01*
X110951570Y-78510930D01*
X110937154Y-78495024D01*
X110924366Y-78477781D01*
X110913330Y-78459368D01*
X110904151Y-78439962D01*
X110896919Y-78419750D01*
X110891703Y-78398926D01*
X110888553Y-78377691D01*
X110887500Y-78356250D01*
X110887500Y-77843750D01*
X110888553Y-77822309D01*
X110891703Y-77801074D01*
X110896919Y-77780250D01*
X110904151Y-77760038D01*
X110913330Y-77740632D01*
X110924366Y-77722219D01*
X110937154Y-77704976D01*
X110951570Y-77689070D01*
X110967476Y-77674654D01*
X110984719Y-77661866D01*
X111003132Y-77650830D01*
X111022538Y-77641651D01*
X111042750Y-77634419D01*
X111063574Y-77629203D01*
X111084809Y-77626053D01*
X111106250Y-77625000D01*
X111543750Y-77625000D01*
X111565191Y-77626053D01*
G37*
G36*
X113140191Y-77626053D02*
G01*
X113161426Y-77629203D01*
X113182250Y-77634419D01*
X113202462Y-77641651D01*
X113221868Y-77650830D01*
X113240281Y-77661866D01*
X113257524Y-77674654D01*
X113273430Y-77689070D01*
X113287846Y-77704976D01*
X113300634Y-77722219D01*
X113311670Y-77740632D01*
X113320849Y-77760038D01*
X113328081Y-77780250D01*
X113333297Y-77801074D01*
X113336447Y-77822309D01*
X113337500Y-77843750D01*
X113337500Y-78356250D01*
X113336447Y-78377691D01*
X113333297Y-78398926D01*
X113328081Y-78419750D01*
X113320849Y-78439962D01*
X113311670Y-78459368D01*
X113300634Y-78477781D01*
X113287846Y-78495024D01*
X113273430Y-78510930D01*
X113257524Y-78525346D01*
X113240281Y-78538134D01*
X113221868Y-78549170D01*
X113202462Y-78558349D01*
X113182250Y-78565581D01*
X113161426Y-78570797D01*
X113140191Y-78573947D01*
X113118750Y-78575000D01*
X112681250Y-78575000D01*
X112659809Y-78573947D01*
X112638574Y-78570797D01*
X112617750Y-78565581D01*
X112597538Y-78558349D01*
X112578132Y-78549170D01*
X112559719Y-78538134D01*
X112542476Y-78525346D01*
X112526570Y-78510930D01*
X112512154Y-78495024D01*
X112499366Y-78477781D01*
X112488330Y-78459368D01*
X112479151Y-78439962D01*
X112471919Y-78419750D01*
X112466703Y-78398926D01*
X112463553Y-78377691D01*
X112462500Y-78356250D01*
X112462500Y-77843750D01*
X112463553Y-77822309D01*
X112466703Y-77801074D01*
X112471919Y-77780250D01*
X112479151Y-77760038D01*
X112488330Y-77740632D01*
X112499366Y-77722219D01*
X112512154Y-77704976D01*
X112526570Y-77689070D01*
X112542476Y-77674654D01*
X112559719Y-77661866D01*
X112578132Y-77650830D01*
X112597538Y-77641651D01*
X112617750Y-77634419D01*
X112638574Y-77629203D01*
X112659809Y-77626053D01*
X112681250Y-77625000D01*
X113118750Y-77625000D01*
X113140191Y-77626053D01*
G37*
G36*
X122277691Y-86063553D02*
G01*
X122298926Y-86066703D01*
X122319750Y-86071919D01*
X122339962Y-86079151D01*
X122359368Y-86088330D01*
X122377781Y-86099366D01*
X122395024Y-86112154D01*
X122410930Y-86126570D01*
X122425346Y-86142476D01*
X122438134Y-86159719D01*
X122449170Y-86178132D01*
X122458349Y-86197538D01*
X122465581Y-86217750D01*
X122470797Y-86238574D01*
X122473947Y-86259809D01*
X122475000Y-86281250D01*
X122475000Y-86718750D01*
X122473947Y-86740191D01*
X122470797Y-86761426D01*
X122465581Y-86782250D01*
X122458349Y-86802462D01*
X122449170Y-86821868D01*
X122438134Y-86840281D01*
X122425346Y-86857524D01*
X122410930Y-86873430D01*
X122395024Y-86887846D01*
X122377781Y-86900634D01*
X122359368Y-86911670D01*
X122339962Y-86920849D01*
X122319750Y-86928081D01*
X122298926Y-86933297D01*
X122277691Y-86936447D01*
X122256250Y-86937500D01*
X121743750Y-86937500D01*
X121722309Y-86936447D01*
X121701074Y-86933297D01*
X121680250Y-86928081D01*
X121660038Y-86920849D01*
X121640632Y-86911670D01*
X121622219Y-86900634D01*
X121604976Y-86887846D01*
X121589070Y-86873430D01*
X121574654Y-86857524D01*
X121561866Y-86840281D01*
X121550830Y-86821868D01*
X121541651Y-86802462D01*
X121534419Y-86782250D01*
X121529203Y-86761426D01*
X121526053Y-86740191D01*
X121525000Y-86718750D01*
X121525000Y-86281250D01*
X121526053Y-86259809D01*
X121529203Y-86238574D01*
X121534419Y-86217750D01*
X121541651Y-86197538D01*
X121550830Y-86178132D01*
X121561866Y-86159719D01*
X121574654Y-86142476D01*
X121589070Y-86126570D01*
X121604976Y-86112154D01*
X121622219Y-86099366D01*
X121640632Y-86088330D01*
X121660038Y-86079151D01*
X121680250Y-86071919D01*
X121701074Y-86066703D01*
X121722309Y-86063553D01*
X121743750Y-86062500D01*
X122256250Y-86062500D01*
X122277691Y-86063553D01*
G37*
G36*
X122277691Y-87638553D02*
G01*
X122298926Y-87641703D01*
X122319750Y-87646919D01*
X122339962Y-87654151D01*
X122359368Y-87663330D01*
X122377781Y-87674366D01*
X122395024Y-87687154D01*
X122410930Y-87701570D01*
X122425346Y-87717476D01*
X122438134Y-87734719D01*
X122449170Y-87753132D01*
X122458349Y-87772538D01*
X122465581Y-87792750D01*
X122470797Y-87813574D01*
X122473947Y-87834809D01*
X122475000Y-87856250D01*
X122475000Y-88293750D01*
X122473947Y-88315191D01*
X122470797Y-88336426D01*
X122465581Y-88357250D01*
X122458349Y-88377462D01*
X122449170Y-88396868D01*
X122438134Y-88415281D01*
X122425346Y-88432524D01*
X122410930Y-88448430D01*
X122395024Y-88462846D01*
X122377781Y-88475634D01*
X122359368Y-88486670D01*
X122339962Y-88495849D01*
X122319750Y-88503081D01*
X122298926Y-88508297D01*
X122277691Y-88511447D01*
X122256250Y-88512500D01*
X121743750Y-88512500D01*
X121722309Y-88511447D01*
X121701074Y-88508297D01*
X121680250Y-88503081D01*
X121660038Y-88495849D01*
X121640632Y-88486670D01*
X121622219Y-88475634D01*
X121604976Y-88462846D01*
X121589070Y-88448430D01*
X121574654Y-88432524D01*
X121561866Y-88415281D01*
X121550830Y-88396868D01*
X121541651Y-88377462D01*
X121534419Y-88357250D01*
X121529203Y-88336426D01*
X121526053Y-88315191D01*
X121525000Y-88293750D01*
X121525000Y-87856250D01*
X121526053Y-87834809D01*
X121529203Y-87813574D01*
X121534419Y-87792750D01*
X121541651Y-87772538D01*
X121550830Y-87753132D01*
X121561866Y-87734719D01*
X121574654Y-87717476D01*
X121589070Y-87701570D01*
X121604976Y-87687154D01*
X121622219Y-87674366D01*
X121640632Y-87663330D01*
X121660038Y-87654151D01*
X121680250Y-87646919D01*
X121701074Y-87641703D01*
X121722309Y-87638553D01*
X121743750Y-87637500D01*
X122256250Y-87637500D01*
X122277691Y-87638553D01*
G37*
G36*
X123977691Y-87638553D02*
G01*
X123998926Y-87641703D01*
X124019750Y-87646919D01*
X124039962Y-87654151D01*
X124059368Y-87663330D01*
X124077781Y-87674366D01*
X124095024Y-87687154D01*
X124110930Y-87701570D01*
X124125346Y-87717476D01*
X124138134Y-87734719D01*
X124149170Y-87753132D01*
X124158349Y-87772538D01*
X124165581Y-87792750D01*
X124170797Y-87813574D01*
X124173947Y-87834809D01*
X124175000Y-87856250D01*
X124175000Y-88293750D01*
X124173947Y-88315191D01*
X124170797Y-88336426D01*
X124165581Y-88357250D01*
X124158349Y-88377462D01*
X124149170Y-88396868D01*
X124138134Y-88415281D01*
X124125346Y-88432524D01*
X124110930Y-88448430D01*
X124095024Y-88462846D01*
X124077781Y-88475634D01*
X124059368Y-88486670D01*
X124039962Y-88495849D01*
X124019750Y-88503081D01*
X123998926Y-88508297D01*
X123977691Y-88511447D01*
X123956250Y-88512500D01*
X123443750Y-88512500D01*
X123422309Y-88511447D01*
X123401074Y-88508297D01*
X123380250Y-88503081D01*
X123360038Y-88495849D01*
X123340632Y-88486670D01*
X123322219Y-88475634D01*
X123304976Y-88462846D01*
X123289070Y-88448430D01*
X123274654Y-88432524D01*
X123261866Y-88415281D01*
X123250830Y-88396868D01*
X123241651Y-88377462D01*
X123234419Y-88357250D01*
X123229203Y-88336426D01*
X123226053Y-88315191D01*
X123225000Y-88293750D01*
X123225000Y-87856250D01*
X123226053Y-87834809D01*
X123229203Y-87813574D01*
X123234419Y-87792750D01*
X123241651Y-87772538D01*
X123250830Y-87753132D01*
X123261866Y-87734719D01*
X123274654Y-87717476D01*
X123289070Y-87701570D01*
X123304976Y-87687154D01*
X123322219Y-87674366D01*
X123340632Y-87663330D01*
X123360038Y-87654151D01*
X123380250Y-87646919D01*
X123401074Y-87641703D01*
X123422309Y-87638553D01*
X123443750Y-87637500D01*
X123956250Y-87637500D01*
X123977691Y-87638553D01*
G37*
G36*
X123977691Y-86063553D02*
G01*
X123998926Y-86066703D01*
X124019750Y-86071919D01*
X124039962Y-86079151D01*
X124059368Y-86088330D01*
X124077781Y-86099366D01*
X124095024Y-86112154D01*
X124110930Y-86126570D01*
X124125346Y-86142476D01*
X124138134Y-86159719D01*
X124149170Y-86178132D01*
X124158349Y-86197538D01*
X124165581Y-86217750D01*
X124170797Y-86238574D01*
X124173947Y-86259809D01*
X124175000Y-86281250D01*
X124175000Y-86718750D01*
X124173947Y-86740191D01*
X124170797Y-86761426D01*
X124165581Y-86782250D01*
X124158349Y-86802462D01*
X124149170Y-86821868D01*
X124138134Y-86840281D01*
X124125346Y-86857524D01*
X124110930Y-86873430D01*
X124095024Y-86887846D01*
X124077781Y-86900634D01*
X124059368Y-86911670D01*
X124039962Y-86920849D01*
X124019750Y-86928081D01*
X123998926Y-86933297D01*
X123977691Y-86936447D01*
X123956250Y-86937500D01*
X123443750Y-86937500D01*
X123422309Y-86936447D01*
X123401074Y-86933297D01*
X123380250Y-86928081D01*
X123360038Y-86920849D01*
X123340632Y-86911670D01*
X123322219Y-86900634D01*
X123304976Y-86887846D01*
X123289070Y-86873430D01*
X123274654Y-86857524D01*
X123261866Y-86840281D01*
X123250830Y-86821868D01*
X123241651Y-86802462D01*
X123234419Y-86782250D01*
X123229203Y-86761426D01*
X123226053Y-86740191D01*
X123225000Y-86718750D01*
X123225000Y-86281250D01*
X123226053Y-86259809D01*
X123229203Y-86238574D01*
X123234419Y-86217750D01*
X123241651Y-86197538D01*
X123250830Y-86178132D01*
X123261866Y-86159719D01*
X123274654Y-86142476D01*
X123289070Y-86126570D01*
X123304976Y-86112154D01*
X123322219Y-86099366D01*
X123340632Y-86088330D01*
X123360038Y-86079151D01*
X123380250Y-86071919D01*
X123401074Y-86066703D01*
X123422309Y-86063553D01*
X123443750Y-86062500D01*
X123956250Y-86062500D01*
X123977691Y-86063553D01*
G37*
G36*
X125677691Y-87638553D02*
G01*
X125698926Y-87641703D01*
X125719750Y-87646919D01*
X125739962Y-87654151D01*
X125759368Y-87663330D01*
X125777781Y-87674366D01*
X125795024Y-87687154D01*
X125810930Y-87701570D01*
X125825346Y-87717476D01*
X125838134Y-87734719D01*
X125849170Y-87753132D01*
X125858349Y-87772538D01*
X125865581Y-87792750D01*
X125870797Y-87813574D01*
X125873947Y-87834809D01*
X125875000Y-87856250D01*
X125875000Y-88293750D01*
X125873947Y-88315191D01*
X125870797Y-88336426D01*
X125865581Y-88357250D01*
X125858349Y-88377462D01*
X125849170Y-88396868D01*
X125838134Y-88415281D01*
X125825346Y-88432524D01*
X125810930Y-88448430D01*
X125795024Y-88462846D01*
X125777781Y-88475634D01*
X125759368Y-88486670D01*
X125739962Y-88495849D01*
X125719750Y-88503081D01*
X125698926Y-88508297D01*
X125677691Y-88511447D01*
X125656250Y-88512500D01*
X125143750Y-88512500D01*
X125122309Y-88511447D01*
X125101074Y-88508297D01*
X125080250Y-88503081D01*
X125060038Y-88495849D01*
X125040632Y-88486670D01*
X125022219Y-88475634D01*
X125004976Y-88462846D01*
X124989070Y-88448430D01*
X124974654Y-88432524D01*
X124961866Y-88415281D01*
X124950830Y-88396868D01*
X124941651Y-88377462D01*
X124934419Y-88357250D01*
X124929203Y-88336426D01*
X124926053Y-88315191D01*
X124925000Y-88293750D01*
X124925000Y-87856250D01*
X124926053Y-87834809D01*
X124929203Y-87813574D01*
X124934419Y-87792750D01*
X124941651Y-87772538D01*
X124950830Y-87753132D01*
X124961866Y-87734719D01*
X124974654Y-87717476D01*
X124989070Y-87701570D01*
X125004976Y-87687154D01*
X125022219Y-87674366D01*
X125040632Y-87663330D01*
X125060038Y-87654151D01*
X125080250Y-87646919D01*
X125101074Y-87641703D01*
X125122309Y-87638553D01*
X125143750Y-87637500D01*
X125656250Y-87637500D01*
X125677691Y-87638553D01*
G37*
G36*
X125677691Y-86063553D02*
G01*
X125698926Y-86066703D01*
X125719750Y-86071919D01*
X125739962Y-86079151D01*
X125759368Y-86088330D01*
X125777781Y-86099366D01*
X125795024Y-86112154D01*
X125810930Y-86126570D01*
X125825346Y-86142476D01*
X125838134Y-86159719D01*
X125849170Y-86178132D01*
X125858349Y-86197538D01*
X125865581Y-86217750D01*
X125870797Y-86238574D01*
X125873947Y-86259809D01*
X125875000Y-86281250D01*
X125875000Y-86718750D01*
X125873947Y-86740191D01*
X125870797Y-86761426D01*
X125865581Y-86782250D01*
X125858349Y-86802462D01*
X125849170Y-86821868D01*
X125838134Y-86840281D01*
X125825346Y-86857524D01*
X125810930Y-86873430D01*
X125795024Y-86887846D01*
X125777781Y-86900634D01*
X125759368Y-86911670D01*
X125739962Y-86920849D01*
X125719750Y-86928081D01*
X125698926Y-86933297D01*
X125677691Y-86936447D01*
X125656250Y-86937500D01*
X125143750Y-86937500D01*
X125122309Y-86936447D01*
X125101074Y-86933297D01*
X125080250Y-86928081D01*
X125060038Y-86920849D01*
X125040632Y-86911670D01*
X125022219Y-86900634D01*
X125004976Y-86887846D01*
X124989070Y-86873430D01*
X124974654Y-86857524D01*
X124961866Y-86840281D01*
X124950830Y-86821868D01*
X124941651Y-86802462D01*
X124934419Y-86782250D01*
X124929203Y-86761426D01*
X124926053Y-86740191D01*
X124925000Y-86718750D01*
X124925000Y-86281250D01*
X124926053Y-86259809D01*
X124929203Y-86238574D01*
X124934419Y-86217750D01*
X124941651Y-86197538D01*
X124950830Y-86178132D01*
X124961866Y-86159719D01*
X124974654Y-86142476D01*
X124989070Y-86126570D01*
X125004976Y-86112154D01*
X125022219Y-86099366D01*
X125040632Y-86088330D01*
X125060038Y-86079151D01*
X125080250Y-86071919D01*
X125101074Y-86066703D01*
X125122309Y-86063553D01*
X125143750Y-86062500D01*
X125656250Y-86062500D01*
X125677691Y-86063553D01*
G37*
G36*
X124177691Y-82563553D02*
G01*
X124198926Y-82566703D01*
X124219750Y-82571919D01*
X124239962Y-82579151D01*
X124259368Y-82588330D01*
X124277781Y-82599366D01*
X124295024Y-82612154D01*
X124310930Y-82626570D01*
X124325346Y-82642476D01*
X124338134Y-82659719D01*
X124349170Y-82678132D01*
X124358349Y-82697538D01*
X124365581Y-82717750D01*
X124370797Y-82738574D01*
X124373947Y-82759809D01*
X124375000Y-82781250D01*
X124375000Y-83218750D01*
X124373947Y-83240191D01*
X124370797Y-83261426D01*
X124365581Y-83282250D01*
X124358349Y-83302462D01*
X124349170Y-83321868D01*
X124338134Y-83340281D01*
X124325346Y-83357524D01*
X124310930Y-83373430D01*
X124295024Y-83387846D01*
X124277781Y-83400634D01*
X124259368Y-83411670D01*
X124239962Y-83420849D01*
X124219750Y-83428081D01*
X124198926Y-83433297D01*
X124177691Y-83436447D01*
X124156250Y-83437500D01*
X123643750Y-83437500D01*
X123622309Y-83436447D01*
X123601074Y-83433297D01*
X123580250Y-83428081D01*
X123560038Y-83420849D01*
X123540632Y-83411670D01*
X123522219Y-83400634D01*
X123504976Y-83387846D01*
X123489070Y-83373430D01*
X123474654Y-83357524D01*
X123461866Y-83340281D01*
X123450830Y-83321868D01*
X123441651Y-83302462D01*
X123434419Y-83282250D01*
X123429203Y-83261426D01*
X123426053Y-83240191D01*
X123425000Y-83218750D01*
X123425000Y-82781250D01*
X123426053Y-82759809D01*
X123429203Y-82738574D01*
X123434419Y-82717750D01*
X123441651Y-82697538D01*
X123450830Y-82678132D01*
X123461866Y-82659719D01*
X123474654Y-82642476D01*
X123489070Y-82626570D01*
X123504976Y-82612154D01*
X123522219Y-82599366D01*
X123540632Y-82588330D01*
X123560038Y-82579151D01*
X123580250Y-82571919D01*
X123601074Y-82566703D01*
X123622309Y-82563553D01*
X123643750Y-82562500D01*
X124156250Y-82562500D01*
X124177691Y-82563553D01*
G37*
G36*
X124177691Y-84138553D02*
G01*
X124198926Y-84141703D01*
X124219750Y-84146919D01*
X124239962Y-84154151D01*
X124259368Y-84163330D01*
X124277781Y-84174366D01*
X124295024Y-84187154D01*
X124310930Y-84201570D01*
X124325346Y-84217476D01*
X124338134Y-84234719D01*
X124349170Y-84253132D01*
X124358349Y-84272538D01*
X124365581Y-84292750D01*
X124370797Y-84313574D01*
X124373947Y-84334809D01*
X124375000Y-84356250D01*
X124375000Y-84793750D01*
X124373947Y-84815191D01*
X124370797Y-84836426D01*
X124365581Y-84857250D01*
X124358349Y-84877462D01*
X124349170Y-84896868D01*
X124338134Y-84915281D01*
X124325346Y-84932524D01*
X124310930Y-84948430D01*
X124295024Y-84962846D01*
X124277781Y-84975634D01*
X124259368Y-84986670D01*
X124239962Y-84995849D01*
X124219750Y-85003081D01*
X124198926Y-85008297D01*
X124177691Y-85011447D01*
X124156250Y-85012500D01*
X123643750Y-85012500D01*
X123622309Y-85011447D01*
X123601074Y-85008297D01*
X123580250Y-85003081D01*
X123560038Y-84995849D01*
X123540632Y-84986670D01*
X123522219Y-84975634D01*
X123504976Y-84962846D01*
X123489070Y-84948430D01*
X123474654Y-84932524D01*
X123461866Y-84915281D01*
X123450830Y-84896868D01*
X123441651Y-84877462D01*
X123434419Y-84857250D01*
X123429203Y-84836426D01*
X123426053Y-84815191D01*
X123425000Y-84793750D01*
X123425000Y-84356250D01*
X123426053Y-84334809D01*
X123429203Y-84313574D01*
X123434419Y-84292750D01*
X123441651Y-84272538D01*
X123450830Y-84253132D01*
X123461866Y-84234719D01*
X123474654Y-84217476D01*
X123489070Y-84201570D01*
X123504976Y-84187154D01*
X123522219Y-84174366D01*
X123540632Y-84163330D01*
X123560038Y-84154151D01*
X123580250Y-84146919D01*
X123601074Y-84141703D01*
X123622309Y-84138553D01*
X123643750Y-84137500D01*
X124156250Y-84137500D01*
X124177691Y-84138553D01*
G37*
G36*
X125977691Y-82588553D02*
G01*
X125998926Y-82591703D01*
X126019750Y-82596919D01*
X126039962Y-82604151D01*
X126059368Y-82613330D01*
X126077781Y-82624366D01*
X126095024Y-82637154D01*
X126110930Y-82651570D01*
X126125346Y-82667476D01*
X126138134Y-82684719D01*
X126149170Y-82703132D01*
X126158349Y-82722538D01*
X126165581Y-82742750D01*
X126170797Y-82763574D01*
X126173947Y-82784809D01*
X126175000Y-82806250D01*
X126175000Y-83243750D01*
X126173947Y-83265191D01*
X126170797Y-83286426D01*
X126165581Y-83307250D01*
X126158349Y-83327462D01*
X126149170Y-83346868D01*
X126138134Y-83365281D01*
X126125346Y-83382524D01*
X126110930Y-83398430D01*
X126095024Y-83412846D01*
X126077781Y-83425634D01*
X126059368Y-83436670D01*
X126039962Y-83445849D01*
X126019750Y-83453081D01*
X125998926Y-83458297D01*
X125977691Y-83461447D01*
X125956250Y-83462500D01*
X125443750Y-83462500D01*
X125422309Y-83461447D01*
X125401074Y-83458297D01*
X125380250Y-83453081D01*
X125360038Y-83445849D01*
X125340632Y-83436670D01*
X125322219Y-83425634D01*
X125304976Y-83412846D01*
X125289070Y-83398430D01*
X125274654Y-83382524D01*
X125261866Y-83365281D01*
X125250830Y-83346868D01*
X125241651Y-83327462D01*
X125234419Y-83307250D01*
X125229203Y-83286426D01*
X125226053Y-83265191D01*
X125225000Y-83243750D01*
X125225000Y-82806250D01*
X125226053Y-82784809D01*
X125229203Y-82763574D01*
X125234419Y-82742750D01*
X125241651Y-82722538D01*
X125250830Y-82703132D01*
X125261866Y-82684719D01*
X125274654Y-82667476D01*
X125289070Y-82651570D01*
X125304976Y-82637154D01*
X125322219Y-82624366D01*
X125340632Y-82613330D01*
X125360038Y-82604151D01*
X125380250Y-82596919D01*
X125401074Y-82591703D01*
X125422309Y-82588553D01*
X125443750Y-82587500D01*
X125956250Y-82587500D01*
X125977691Y-82588553D01*
G37*
G36*
X125977691Y-84163553D02*
G01*
X125998926Y-84166703D01*
X126019750Y-84171919D01*
X126039962Y-84179151D01*
X126059368Y-84188330D01*
X126077781Y-84199366D01*
X126095024Y-84212154D01*
X126110930Y-84226570D01*
X126125346Y-84242476D01*
X126138134Y-84259719D01*
X126149170Y-84278132D01*
X126158349Y-84297538D01*
X126165581Y-84317750D01*
X126170797Y-84338574D01*
X126173947Y-84359809D01*
X126175000Y-84381250D01*
X126175000Y-84818750D01*
X126173947Y-84840191D01*
X126170797Y-84861426D01*
X126165581Y-84882250D01*
X126158349Y-84902462D01*
X126149170Y-84921868D01*
X126138134Y-84940281D01*
X126125346Y-84957524D01*
X126110930Y-84973430D01*
X126095024Y-84987846D01*
X126077781Y-85000634D01*
X126059368Y-85011670D01*
X126039962Y-85020849D01*
X126019750Y-85028081D01*
X125998926Y-85033297D01*
X125977691Y-85036447D01*
X125956250Y-85037500D01*
X125443750Y-85037500D01*
X125422309Y-85036447D01*
X125401074Y-85033297D01*
X125380250Y-85028081D01*
X125360038Y-85020849D01*
X125340632Y-85011670D01*
X125322219Y-85000634D01*
X125304976Y-84987846D01*
X125289070Y-84973430D01*
X125274654Y-84957524D01*
X125261866Y-84940281D01*
X125250830Y-84921868D01*
X125241651Y-84902462D01*
X125234419Y-84882250D01*
X125229203Y-84861426D01*
X125226053Y-84840191D01*
X125225000Y-84818750D01*
X125225000Y-84381250D01*
X125226053Y-84359809D01*
X125229203Y-84338574D01*
X125234419Y-84317750D01*
X125241651Y-84297538D01*
X125250830Y-84278132D01*
X125261866Y-84259719D01*
X125274654Y-84242476D01*
X125289070Y-84226570D01*
X125304976Y-84212154D01*
X125322219Y-84199366D01*
X125340632Y-84188330D01*
X125360038Y-84179151D01*
X125380250Y-84171919D01*
X125401074Y-84166703D01*
X125422309Y-84163553D01*
X125443750Y-84162500D01*
X125956250Y-84162500D01*
X125977691Y-84163553D01*
G37*
G36*
X122277691Y-84138553D02*
G01*
X122298926Y-84141703D01*
X122319750Y-84146919D01*
X122339962Y-84154151D01*
X122359368Y-84163330D01*
X122377781Y-84174366D01*
X122395024Y-84187154D01*
X122410930Y-84201570D01*
X122425346Y-84217476D01*
X122438134Y-84234719D01*
X122449170Y-84253132D01*
X122458349Y-84272538D01*
X122465581Y-84292750D01*
X122470797Y-84313574D01*
X122473947Y-84334809D01*
X122475000Y-84356250D01*
X122475000Y-84793750D01*
X122473947Y-84815191D01*
X122470797Y-84836426D01*
X122465581Y-84857250D01*
X122458349Y-84877462D01*
X122449170Y-84896868D01*
X122438134Y-84915281D01*
X122425346Y-84932524D01*
X122410930Y-84948430D01*
X122395024Y-84962846D01*
X122377781Y-84975634D01*
X122359368Y-84986670D01*
X122339962Y-84995849D01*
X122319750Y-85003081D01*
X122298926Y-85008297D01*
X122277691Y-85011447D01*
X122256250Y-85012500D01*
X121743750Y-85012500D01*
X121722309Y-85011447D01*
X121701074Y-85008297D01*
X121680250Y-85003081D01*
X121660038Y-84995849D01*
X121640632Y-84986670D01*
X121622219Y-84975634D01*
X121604976Y-84962846D01*
X121589070Y-84948430D01*
X121574654Y-84932524D01*
X121561866Y-84915281D01*
X121550830Y-84896868D01*
X121541651Y-84877462D01*
X121534419Y-84857250D01*
X121529203Y-84836426D01*
X121526053Y-84815191D01*
X121525000Y-84793750D01*
X121525000Y-84356250D01*
X121526053Y-84334809D01*
X121529203Y-84313574D01*
X121534419Y-84292750D01*
X121541651Y-84272538D01*
X121550830Y-84253132D01*
X121561866Y-84234719D01*
X121574654Y-84217476D01*
X121589070Y-84201570D01*
X121604976Y-84187154D01*
X121622219Y-84174366D01*
X121640632Y-84163330D01*
X121660038Y-84154151D01*
X121680250Y-84146919D01*
X121701074Y-84141703D01*
X121722309Y-84138553D01*
X121743750Y-84137500D01*
X122256250Y-84137500D01*
X122277691Y-84138553D01*
G37*
G36*
X122277691Y-82563553D02*
G01*
X122298926Y-82566703D01*
X122319750Y-82571919D01*
X122339962Y-82579151D01*
X122359368Y-82588330D01*
X122377781Y-82599366D01*
X122395024Y-82612154D01*
X122410930Y-82626570D01*
X122425346Y-82642476D01*
X122438134Y-82659719D01*
X122449170Y-82678132D01*
X122458349Y-82697538D01*
X122465581Y-82717750D01*
X122470797Y-82738574D01*
X122473947Y-82759809D01*
X122475000Y-82781250D01*
X122475000Y-83218750D01*
X122473947Y-83240191D01*
X122470797Y-83261426D01*
X122465581Y-83282250D01*
X122458349Y-83302462D01*
X122449170Y-83321868D01*
X122438134Y-83340281D01*
X122425346Y-83357524D01*
X122410930Y-83373430D01*
X122395024Y-83387846D01*
X122377781Y-83400634D01*
X122359368Y-83411670D01*
X122339962Y-83420849D01*
X122319750Y-83428081D01*
X122298926Y-83433297D01*
X122277691Y-83436447D01*
X122256250Y-83437500D01*
X121743750Y-83437500D01*
X121722309Y-83436447D01*
X121701074Y-83433297D01*
X121680250Y-83428081D01*
X121660038Y-83420849D01*
X121640632Y-83411670D01*
X121622219Y-83400634D01*
X121604976Y-83387846D01*
X121589070Y-83373430D01*
X121574654Y-83357524D01*
X121561866Y-83340281D01*
X121550830Y-83321868D01*
X121541651Y-83302462D01*
X121534419Y-83282250D01*
X121529203Y-83261426D01*
X121526053Y-83240191D01*
X121525000Y-83218750D01*
X121525000Y-82781250D01*
X121526053Y-82759809D01*
X121529203Y-82738574D01*
X121534419Y-82717750D01*
X121541651Y-82697538D01*
X121550830Y-82678132D01*
X121561866Y-82659719D01*
X121574654Y-82642476D01*
X121589070Y-82626570D01*
X121604976Y-82612154D01*
X121622219Y-82599366D01*
X121640632Y-82588330D01*
X121660038Y-82579151D01*
X121680250Y-82571919D01*
X121701074Y-82566703D01*
X121722309Y-82563553D01*
X121743750Y-82562500D01*
X122256250Y-82562500D01*
X122277691Y-82563553D01*
G37*
G36*
X132577691Y-80776053D02*
G01*
X132598926Y-80779203D01*
X132619750Y-80784419D01*
X132639962Y-80791651D01*
X132659368Y-80800830D01*
X132677781Y-80811866D01*
X132695024Y-80824654D01*
X132710930Y-80839070D01*
X132725346Y-80854976D01*
X132738134Y-80872219D01*
X132749170Y-80890632D01*
X132758349Y-80910038D01*
X132765581Y-80930250D01*
X132770797Y-80951074D01*
X132773947Y-80972309D01*
X132775000Y-80993750D01*
X132775000Y-81431250D01*
X132773947Y-81452691D01*
X132770797Y-81473926D01*
X132765581Y-81494750D01*
X132758349Y-81514962D01*
X132749170Y-81534368D01*
X132738134Y-81552781D01*
X132725346Y-81570024D01*
X132710930Y-81585930D01*
X132695024Y-81600346D01*
X132677781Y-81613134D01*
X132659368Y-81624170D01*
X132639962Y-81633349D01*
X132619750Y-81640581D01*
X132598926Y-81645797D01*
X132577691Y-81648947D01*
X132556250Y-81650000D01*
X132043750Y-81650000D01*
X132022309Y-81648947D01*
X132001074Y-81645797D01*
X131980250Y-81640581D01*
X131960038Y-81633349D01*
X131940632Y-81624170D01*
X131922219Y-81613134D01*
X131904976Y-81600346D01*
X131889070Y-81585930D01*
X131874654Y-81570024D01*
X131861866Y-81552781D01*
X131850830Y-81534368D01*
X131841651Y-81514962D01*
X131834419Y-81494750D01*
X131829203Y-81473926D01*
X131826053Y-81452691D01*
X131825000Y-81431250D01*
X131825000Y-80993750D01*
X131826053Y-80972309D01*
X131829203Y-80951074D01*
X131834419Y-80930250D01*
X131841651Y-80910038D01*
X131850830Y-80890632D01*
X131861866Y-80872219D01*
X131874654Y-80854976D01*
X131889070Y-80839070D01*
X131904976Y-80824654D01*
X131922219Y-80811866D01*
X131940632Y-80800830D01*
X131960038Y-80791651D01*
X131980250Y-80784419D01*
X132001074Y-80779203D01*
X132022309Y-80776053D01*
X132043750Y-80775000D01*
X132556250Y-80775000D01*
X132577691Y-80776053D01*
G37*
G36*
X132577691Y-82351053D02*
G01*
X132598926Y-82354203D01*
X132619750Y-82359419D01*
X132639962Y-82366651D01*
X132659368Y-82375830D01*
X132677781Y-82386866D01*
X132695024Y-82399654D01*
X132710930Y-82414070D01*
X132725346Y-82429976D01*
X132738134Y-82447219D01*
X132749170Y-82465632D01*
X132758349Y-82485038D01*
X132765581Y-82505250D01*
X132770797Y-82526074D01*
X132773947Y-82547309D01*
X132775000Y-82568750D01*
X132775000Y-83006250D01*
X132773947Y-83027691D01*
X132770797Y-83048926D01*
X132765581Y-83069750D01*
X132758349Y-83089962D01*
X132749170Y-83109368D01*
X132738134Y-83127781D01*
X132725346Y-83145024D01*
X132710930Y-83160930D01*
X132695024Y-83175346D01*
X132677781Y-83188134D01*
X132659368Y-83199170D01*
X132639962Y-83208349D01*
X132619750Y-83215581D01*
X132598926Y-83220797D01*
X132577691Y-83223947D01*
X132556250Y-83225000D01*
X132043750Y-83225000D01*
X132022309Y-83223947D01*
X132001074Y-83220797D01*
X131980250Y-83215581D01*
X131960038Y-83208349D01*
X131940632Y-83199170D01*
X131922219Y-83188134D01*
X131904976Y-83175346D01*
X131889070Y-83160930D01*
X131874654Y-83145024D01*
X131861866Y-83127781D01*
X131850830Y-83109368D01*
X131841651Y-83089962D01*
X131834419Y-83069750D01*
X131829203Y-83048926D01*
X131826053Y-83027691D01*
X131825000Y-83006250D01*
X131825000Y-82568750D01*
X131826053Y-82547309D01*
X131829203Y-82526074D01*
X131834419Y-82505250D01*
X131841651Y-82485038D01*
X131850830Y-82465632D01*
X131861866Y-82447219D01*
X131874654Y-82429976D01*
X131889070Y-82414070D01*
X131904976Y-82399654D01*
X131922219Y-82386866D01*
X131940632Y-82375830D01*
X131960038Y-82366651D01*
X131980250Y-82359419D01*
X132001074Y-82354203D01*
X132022309Y-82351053D01*
X132043750Y-82350000D01*
X132556250Y-82350000D01*
X132577691Y-82351053D01*
G37*
G36*
X127340191Y-76526053D02*
G01*
X127361426Y-76529203D01*
X127382250Y-76534419D01*
X127402462Y-76541651D01*
X127421868Y-76550830D01*
X127440281Y-76561866D01*
X127457524Y-76574654D01*
X127473430Y-76589070D01*
X127487846Y-76604976D01*
X127500634Y-76622219D01*
X127511670Y-76640632D01*
X127520849Y-76660038D01*
X127528081Y-76680250D01*
X127533297Y-76701074D01*
X127536447Y-76722309D01*
X127537500Y-76743750D01*
X127537500Y-77256250D01*
X127536447Y-77277691D01*
X127533297Y-77298926D01*
X127528081Y-77319750D01*
X127520849Y-77339962D01*
X127511670Y-77359368D01*
X127500634Y-77377781D01*
X127487846Y-77395024D01*
X127473430Y-77410930D01*
X127457524Y-77425346D01*
X127440281Y-77438134D01*
X127421868Y-77449170D01*
X127402462Y-77458349D01*
X127382250Y-77465581D01*
X127361426Y-77470797D01*
X127340191Y-77473947D01*
X127318750Y-77475000D01*
X126881250Y-77475000D01*
X126859809Y-77473947D01*
X126838574Y-77470797D01*
X126817750Y-77465581D01*
X126797538Y-77458349D01*
X126778132Y-77449170D01*
X126759719Y-77438134D01*
X126742476Y-77425346D01*
X126726570Y-77410930D01*
X126712154Y-77395024D01*
X126699366Y-77377781D01*
X126688330Y-77359368D01*
X126679151Y-77339962D01*
X126671919Y-77319750D01*
X126666703Y-77298926D01*
X126663553Y-77277691D01*
X126662500Y-77256250D01*
X126662500Y-76743750D01*
X126663553Y-76722309D01*
X126666703Y-76701074D01*
X126671919Y-76680250D01*
X126679151Y-76660038D01*
X126688330Y-76640632D01*
X126699366Y-76622219D01*
X126712154Y-76604976D01*
X126726570Y-76589070D01*
X126742476Y-76574654D01*
X126759719Y-76561866D01*
X126778132Y-76550830D01*
X126797538Y-76541651D01*
X126817750Y-76534419D01*
X126838574Y-76529203D01*
X126859809Y-76526053D01*
X126881250Y-76525000D01*
X127318750Y-76525000D01*
X127340191Y-76526053D01*
G37*
G36*
X128915191Y-76526053D02*
G01*
X128936426Y-76529203D01*
X128957250Y-76534419D01*
X128977462Y-76541651D01*
X128996868Y-76550830D01*
X129015281Y-76561866D01*
X129032524Y-76574654D01*
X129048430Y-76589070D01*
X129062846Y-76604976D01*
X129075634Y-76622219D01*
X129086670Y-76640632D01*
X129095849Y-76660038D01*
X129103081Y-76680250D01*
X129108297Y-76701074D01*
X129111447Y-76722309D01*
X129112500Y-76743750D01*
X129112500Y-77256250D01*
X129111447Y-77277691D01*
X129108297Y-77298926D01*
X129103081Y-77319750D01*
X129095849Y-77339962D01*
X129086670Y-77359368D01*
X129075634Y-77377781D01*
X129062846Y-77395024D01*
X129048430Y-77410930D01*
X129032524Y-77425346D01*
X129015281Y-77438134D01*
X128996868Y-77449170D01*
X128977462Y-77458349D01*
X128957250Y-77465581D01*
X128936426Y-77470797D01*
X128915191Y-77473947D01*
X128893750Y-77475000D01*
X128456250Y-77475000D01*
X128434809Y-77473947D01*
X128413574Y-77470797D01*
X128392750Y-77465581D01*
X128372538Y-77458349D01*
X128353132Y-77449170D01*
X128334719Y-77438134D01*
X128317476Y-77425346D01*
X128301570Y-77410930D01*
X128287154Y-77395024D01*
X128274366Y-77377781D01*
X128263330Y-77359368D01*
X128254151Y-77339962D01*
X128246919Y-77319750D01*
X128241703Y-77298926D01*
X128238553Y-77277691D01*
X128237500Y-77256250D01*
X128237500Y-76743750D01*
X128238553Y-76722309D01*
X128241703Y-76701074D01*
X128246919Y-76680250D01*
X128254151Y-76660038D01*
X128263330Y-76640632D01*
X128274366Y-76622219D01*
X128287154Y-76604976D01*
X128301570Y-76589070D01*
X128317476Y-76574654D01*
X128334719Y-76561866D01*
X128353132Y-76550830D01*
X128372538Y-76541651D01*
X128392750Y-76534419D01*
X128413574Y-76529203D01*
X128434809Y-76526053D01*
X128456250Y-76525000D01*
X128893750Y-76525000D01*
X128915191Y-76526053D01*
G37*
D11*
X113000000Y-74400000D03*
X111600000Y-74400000D03*
D10*
G36*
X120377691Y-82563553D02*
G01*
X120398926Y-82566703D01*
X120419750Y-82571919D01*
X120439962Y-82579151D01*
X120459368Y-82588330D01*
X120477781Y-82599366D01*
X120495024Y-82612154D01*
X120510930Y-82626570D01*
X120525346Y-82642476D01*
X120538134Y-82659719D01*
X120549170Y-82678132D01*
X120558349Y-82697538D01*
X120565581Y-82717750D01*
X120570797Y-82738574D01*
X120573947Y-82759809D01*
X120575000Y-82781250D01*
X120575000Y-83218750D01*
X120573947Y-83240191D01*
X120570797Y-83261426D01*
X120565581Y-83282250D01*
X120558349Y-83302462D01*
X120549170Y-83321868D01*
X120538134Y-83340281D01*
X120525346Y-83357524D01*
X120510930Y-83373430D01*
X120495024Y-83387846D01*
X120477781Y-83400634D01*
X120459368Y-83411670D01*
X120439962Y-83420849D01*
X120419750Y-83428081D01*
X120398926Y-83433297D01*
X120377691Y-83436447D01*
X120356250Y-83437500D01*
X119843750Y-83437500D01*
X119822309Y-83436447D01*
X119801074Y-83433297D01*
X119780250Y-83428081D01*
X119760038Y-83420849D01*
X119740632Y-83411670D01*
X119722219Y-83400634D01*
X119704976Y-83387846D01*
X119689070Y-83373430D01*
X119674654Y-83357524D01*
X119661866Y-83340281D01*
X119650830Y-83321868D01*
X119641651Y-83302462D01*
X119634419Y-83282250D01*
X119629203Y-83261426D01*
X119626053Y-83240191D01*
X119625000Y-83218750D01*
X119625000Y-82781250D01*
X119626053Y-82759809D01*
X119629203Y-82738574D01*
X119634419Y-82717750D01*
X119641651Y-82697538D01*
X119650830Y-82678132D01*
X119661866Y-82659719D01*
X119674654Y-82642476D01*
X119689070Y-82626570D01*
X119704976Y-82612154D01*
X119722219Y-82599366D01*
X119740632Y-82588330D01*
X119760038Y-82579151D01*
X119780250Y-82571919D01*
X119801074Y-82566703D01*
X119822309Y-82563553D01*
X119843750Y-82562500D01*
X120356250Y-82562500D01*
X120377691Y-82563553D01*
G37*
G36*
X120377691Y-84138553D02*
G01*
X120398926Y-84141703D01*
X120419750Y-84146919D01*
X120439962Y-84154151D01*
X120459368Y-84163330D01*
X120477781Y-84174366D01*
X120495024Y-84187154D01*
X120510930Y-84201570D01*
X120525346Y-84217476D01*
X120538134Y-84234719D01*
X120549170Y-84253132D01*
X120558349Y-84272538D01*
X120565581Y-84292750D01*
X120570797Y-84313574D01*
X120573947Y-84334809D01*
X120575000Y-84356250D01*
X120575000Y-84793750D01*
X120573947Y-84815191D01*
X120570797Y-84836426D01*
X120565581Y-84857250D01*
X120558349Y-84877462D01*
X120549170Y-84896868D01*
X120538134Y-84915281D01*
X120525346Y-84932524D01*
X120510930Y-84948430D01*
X120495024Y-84962846D01*
X120477781Y-84975634D01*
X120459368Y-84986670D01*
X120439962Y-84995849D01*
X120419750Y-85003081D01*
X120398926Y-85008297D01*
X120377691Y-85011447D01*
X120356250Y-85012500D01*
X119843750Y-85012500D01*
X119822309Y-85011447D01*
X119801074Y-85008297D01*
X119780250Y-85003081D01*
X119760038Y-84995849D01*
X119740632Y-84986670D01*
X119722219Y-84975634D01*
X119704976Y-84962846D01*
X119689070Y-84948430D01*
X119674654Y-84932524D01*
X119661866Y-84915281D01*
X119650830Y-84896868D01*
X119641651Y-84877462D01*
X119634419Y-84857250D01*
X119629203Y-84836426D01*
X119626053Y-84815191D01*
X119625000Y-84793750D01*
X119625000Y-84356250D01*
X119626053Y-84334809D01*
X119629203Y-84313574D01*
X119634419Y-84292750D01*
X119641651Y-84272538D01*
X119650830Y-84253132D01*
X119661866Y-84234719D01*
X119674654Y-84217476D01*
X119689070Y-84201570D01*
X119704976Y-84187154D01*
X119722219Y-84174366D01*
X119740632Y-84163330D01*
X119760038Y-84154151D01*
X119780250Y-84146919D01*
X119801074Y-84141703D01*
X119822309Y-84138553D01*
X119843750Y-84137500D01*
X120356250Y-84137500D01*
X120377691Y-84138553D01*
G37*
D12*
X115570000Y-81915000D03*
X115570000Y-83165000D03*
X115570000Y-84415000D03*
X115570000Y-85665000D03*
X115570000Y-86915000D03*
X115570000Y-88165000D03*
X115570000Y-89415000D03*
D13*
X120500000Y-80300000D03*
D10*
G36*
X124674504Y-74426204D02*
G01*
X124698773Y-74429804D01*
X124722571Y-74435765D01*
X124745671Y-74444030D01*
X124767849Y-74454520D01*
X124788893Y-74467133D01*
X124808598Y-74481747D01*
X124826777Y-74498223D01*
X124843253Y-74516402D01*
X124857867Y-74536107D01*
X124870480Y-74557151D01*
X124880970Y-74579329D01*
X124889235Y-74602429D01*
X124895196Y-74626227D01*
X124898796Y-74650496D01*
X124900000Y-74675000D01*
X124900000Y-75425000D01*
X124898796Y-75449504D01*
X124895196Y-75473773D01*
X124889235Y-75497571D01*
X124880970Y-75520671D01*
X124870480Y-75542849D01*
X124857867Y-75563893D01*
X124843253Y-75583598D01*
X124826777Y-75601777D01*
X124808598Y-75618253D01*
X124788893Y-75632867D01*
X124767849Y-75645480D01*
X124745671Y-75655970D01*
X124722571Y-75664235D01*
X124698773Y-75670196D01*
X124674504Y-75673796D01*
X124650000Y-75675000D01*
X122950000Y-75675000D01*
X122925496Y-75673796D01*
X122901227Y-75670196D01*
X122877429Y-75664235D01*
X122854329Y-75655970D01*
X122832151Y-75645480D01*
X122811107Y-75632867D01*
X122791402Y-75618253D01*
X122773223Y-75601777D01*
X122756747Y-75583598D01*
X122742133Y-75563893D01*
X122729520Y-75542849D01*
X122719030Y-75520671D01*
X122710765Y-75497571D01*
X122704804Y-75473773D01*
X122701204Y-75449504D01*
X122700000Y-75425000D01*
X122700000Y-74675000D01*
X122701204Y-74650496D01*
X122704804Y-74626227D01*
X122710765Y-74602429D01*
X122719030Y-74579329D01*
X122729520Y-74557151D01*
X122742133Y-74536107D01*
X122756747Y-74516402D01*
X122773223Y-74498223D01*
X122791402Y-74481747D01*
X122811107Y-74467133D01*
X122832151Y-74454520D01*
X122854329Y-74444030D01*
X122877429Y-74435765D01*
X122901227Y-74429804D01*
X122925496Y-74426204D01*
X122950000Y-74425000D01*
X124650000Y-74425000D01*
X124674504Y-74426204D01*
G37*
G36*
X124674504Y-76576204D02*
G01*
X124698773Y-76579804D01*
X124722571Y-76585765D01*
X124745671Y-76594030D01*
X124767849Y-76604520D01*
X124788893Y-76617133D01*
X124808598Y-76631747D01*
X124826777Y-76648223D01*
X124843253Y-76666402D01*
X124857867Y-76686107D01*
X124870480Y-76707151D01*
X124880970Y-76729329D01*
X124889235Y-76752429D01*
X124895196Y-76776227D01*
X124898796Y-76800496D01*
X124900000Y-76825000D01*
X124900000Y-77575000D01*
X124898796Y-77599504D01*
X124895196Y-77623773D01*
X124889235Y-77647571D01*
X124880970Y-77670671D01*
X124870480Y-77692849D01*
X124857867Y-77713893D01*
X124843253Y-77733598D01*
X124826777Y-77751777D01*
X124808598Y-77768253D01*
X124788893Y-77782867D01*
X124767849Y-77795480D01*
X124745671Y-77805970D01*
X124722571Y-77814235D01*
X124698773Y-77820196D01*
X124674504Y-77823796D01*
X124650000Y-77825000D01*
X122950000Y-77825000D01*
X122925496Y-77823796D01*
X122901227Y-77820196D01*
X122877429Y-77814235D01*
X122854329Y-77805970D01*
X122832151Y-77795480D01*
X122811107Y-77782867D01*
X122791402Y-77768253D01*
X122773223Y-77751777D01*
X122756747Y-77733598D01*
X122742133Y-77713893D01*
X122729520Y-77692849D01*
X122719030Y-77670671D01*
X122710765Y-77647571D01*
X122704804Y-77623773D01*
X122701204Y-77599504D01*
X122700000Y-77575000D01*
X122700000Y-76825000D01*
X122701204Y-76800496D01*
X122704804Y-76776227D01*
X122710765Y-76752429D01*
X122719030Y-76729329D01*
X122729520Y-76707151D01*
X122742133Y-76686107D01*
X122756747Y-76666402D01*
X122773223Y-76648223D01*
X122791402Y-76631747D01*
X122811107Y-76617133D01*
X122832151Y-76604520D01*
X122854329Y-76594030D01*
X122877429Y-76585765D01*
X122901227Y-76579804D01*
X122925496Y-76576204D01*
X122950000Y-76575000D01*
X124650000Y-76575000D01*
X124674504Y-76576204D01*
G37*
G36*
X127340191Y-74626053D02*
G01*
X127361426Y-74629203D01*
X127382250Y-74634419D01*
X127402462Y-74641651D01*
X127421868Y-74650830D01*
X127440281Y-74661866D01*
X127457524Y-74674654D01*
X127473430Y-74689070D01*
X127487846Y-74704976D01*
X127500634Y-74722219D01*
X127511670Y-74740632D01*
X127520849Y-74760038D01*
X127528081Y-74780250D01*
X127533297Y-74801074D01*
X127536447Y-74822309D01*
X127537500Y-74843750D01*
X127537500Y-75356250D01*
X127536447Y-75377691D01*
X127533297Y-75398926D01*
X127528081Y-75419750D01*
X127520849Y-75439962D01*
X127511670Y-75459368D01*
X127500634Y-75477781D01*
X127487846Y-75495024D01*
X127473430Y-75510930D01*
X127457524Y-75525346D01*
X127440281Y-75538134D01*
X127421868Y-75549170D01*
X127402462Y-75558349D01*
X127382250Y-75565581D01*
X127361426Y-75570797D01*
X127340191Y-75573947D01*
X127318750Y-75575000D01*
X126881250Y-75575000D01*
X126859809Y-75573947D01*
X126838574Y-75570797D01*
X126817750Y-75565581D01*
X126797538Y-75558349D01*
X126778132Y-75549170D01*
X126759719Y-75538134D01*
X126742476Y-75525346D01*
X126726570Y-75510930D01*
X126712154Y-75495024D01*
X126699366Y-75477781D01*
X126688330Y-75459368D01*
X126679151Y-75439962D01*
X126671919Y-75419750D01*
X126666703Y-75398926D01*
X126663553Y-75377691D01*
X126662500Y-75356250D01*
X126662500Y-74843750D01*
X126663553Y-74822309D01*
X126666703Y-74801074D01*
X126671919Y-74780250D01*
X126679151Y-74760038D01*
X126688330Y-74740632D01*
X126699366Y-74722219D01*
X126712154Y-74704976D01*
X126726570Y-74689070D01*
X126742476Y-74674654D01*
X126759719Y-74661866D01*
X126778132Y-74650830D01*
X126797538Y-74641651D01*
X126817750Y-74634419D01*
X126838574Y-74629203D01*
X126859809Y-74626053D01*
X126881250Y-74625000D01*
X127318750Y-74625000D01*
X127340191Y-74626053D01*
G37*
G36*
X128915191Y-74626053D02*
G01*
X128936426Y-74629203D01*
X128957250Y-74634419D01*
X128977462Y-74641651D01*
X128996868Y-74650830D01*
X129015281Y-74661866D01*
X129032524Y-74674654D01*
X129048430Y-74689070D01*
X129062846Y-74704976D01*
X129075634Y-74722219D01*
X129086670Y-74740632D01*
X129095849Y-74760038D01*
X129103081Y-74780250D01*
X129108297Y-74801074D01*
X129111447Y-74822309D01*
X129112500Y-74843750D01*
X129112500Y-75356250D01*
X129111447Y-75377691D01*
X129108297Y-75398926D01*
X129103081Y-75419750D01*
X129095849Y-75439962D01*
X129086670Y-75459368D01*
X129075634Y-75477781D01*
X129062846Y-75495024D01*
X129048430Y-75510930D01*
X129032524Y-75525346D01*
X129015281Y-75538134D01*
X128996868Y-75549170D01*
X128977462Y-75558349D01*
X128957250Y-75565581D01*
X128936426Y-75570797D01*
X128915191Y-75573947D01*
X128893750Y-75575000D01*
X128456250Y-75575000D01*
X128434809Y-75573947D01*
X128413574Y-75570797D01*
X128392750Y-75565581D01*
X128372538Y-75558349D01*
X128353132Y-75549170D01*
X128334719Y-75538134D01*
X128317476Y-75525346D01*
X128301570Y-75510930D01*
X128287154Y-75495024D01*
X128274366Y-75477781D01*
X128263330Y-75459368D01*
X128254151Y-75439962D01*
X128246919Y-75419750D01*
X128241703Y-75398926D01*
X128238553Y-75377691D01*
X128237500Y-75356250D01*
X128237500Y-74843750D01*
X128238553Y-74822309D01*
X128241703Y-74801074D01*
X128246919Y-74780250D01*
X128254151Y-74760038D01*
X128263330Y-74740632D01*
X128274366Y-74722219D01*
X128287154Y-74704976D01*
X128301570Y-74689070D01*
X128317476Y-74674654D01*
X128334719Y-74661866D01*
X128353132Y-74650830D01*
X128372538Y-74641651D01*
X128392750Y-74634419D01*
X128413574Y-74629203D01*
X128434809Y-74626053D01*
X128456250Y-74625000D01*
X128893750Y-74625000D01*
X128915191Y-74626053D01*
G37*
G36*
X111565191Y-75726053D02*
G01*
X111586426Y-75729203D01*
X111607250Y-75734419D01*
X111627462Y-75741651D01*
X111646868Y-75750830D01*
X111665281Y-75761866D01*
X111682524Y-75774654D01*
X111698430Y-75789070D01*
X111712846Y-75804976D01*
X111725634Y-75822219D01*
X111736670Y-75840632D01*
X111745849Y-75860038D01*
X111753081Y-75880250D01*
X111758297Y-75901074D01*
X111761447Y-75922309D01*
X111762500Y-75943750D01*
X111762500Y-76456250D01*
X111761447Y-76477691D01*
X111758297Y-76498926D01*
X111753081Y-76519750D01*
X111745849Y-76539962D01*
X111736670Y-76559368D01*
X111725634Y-76577781D01*
X111712846Y-76595024D01*
X111698430Y-76610930D01*
X111682524Y-76625346D01*
X111665281Y-76638134D01*
X111646868Y-76649170D01*
X111627462Y-76658349D01*
X111607250Y-76665581D01*
X111586426Y-76670797D01*
X111565191Y-76673947D01*
X111543750Y-76675000D01*
X111106250Y-76675000D01*
X111084809Y-76673947D01*
X111063574Y-76670797D01*
X111042750Y-76665581D01*
X111022538Y-76658349D01*
X111003132Y-76649170D01*
X110984719Y-76638134D01*
X110967476Y-76625346D01*
X110951570Y-76610930D01*
X110937154Y-76595024D01*
X110924366Y-76577781D01*
X110913330Y-76559368D01*
X110904151Y-76539962D01*
X110896919Y-76519750D01*
X110891703Y-76498926D01*
X110888553Y-76477691D01*
X110887500Y-76456250D01*
X110887500Y-75943750D01*
X110888553Y-75922309D01*
X110891703Y-75901074D01*
X110896919Y-75880250D01*
X110904151Y-75860038D01*
X110913330Y-75840632D01*
X110924366Y-75822219D01*
X110937154Y-75804976D01*
X110951570Y-75789070D01*
X110967476Y-75774654D01*
X110984719Y-75761866D01*
X111003132Y-75750830D01*
X111022538Y-75741651D01*
X111042750Y-75734419D01*
X111063574Y-75729203D01*
X111084809Y-75726053D01*
X111106250Y-75725000D01*
X111543750Y-75725000D01*
X111565191Y-75726053D01*
G37*
G36*
X113140191Y-75726053D02*
G01*
X113161426Y-75729203D01*
X113182250Y-75734419D01*
X113202462Y-75741651D01*
X113221868Y-75750830D01*
X113240281Y-75761866D01*
X113257524Y-75774654D01*
X113273430Y-75789070D01*
X113287846Y-75804976D01*
X113300634Y-75822219D01*
X113311670Y-75840632D01*
X113320849Y-75860038D01*
X113328081Y-75880250D01*
X113333297Y-75901074D01*
X113336447Y-75922309D01*
X113337500Y-75943750D01*
X113337500Y-76456250D01*
X113336447Y-76477691D01*
X113333297Y-76498926D01*
X113328081Y-76519750D01*
X113320849Y-76539962D01*
X113311670Y-76559368D01*
X113300634Y-76577781D01*
X113287846Y-76595024D01*
X113273430Y-76610930D01*
X113257524Y-76625346D01*
X113240281Y-76638134D01*
X113221868Y-76649170D01*
X113202462Y-76658349D01*
X113182250Y-76665581D01*
X113161426Y-76670797D01*
X113140191Y-76673947D01*
X113118750Y-76675000D01*
X112681250Y-76675000D01*
X112659809Y-76673947D01*
X112638574Y-76670797D01*
X112617750Y-76665581D01*
X112597538Y-76658349D01*
X112578132Y-76649170D01*
X112559719Y-76638134D01*
X112542476Y-76625346D01*
X112526570Y-76610930D01*
X112512154Y-76595024D01*
X112499366Y-76577781D01*
X112488330Y-76559368D01*
X112479151Y-76539962D01*
X112471919Y-76519750D01*
X112466703Y-76498926D01*
X112463553Y-76477691D01*
X112462500Y-76456250D01*
X112462500Y-75943750D01*
X112463553Y-75922309D01*
X112466703Y-75901074D01*
X112471919Y-75880250D01*
X112479151Y-75860038D01*
X112488330Y-75840632D01*
X112499366Y-75822219D01*
X112512154Y-75804976D01*
X112526570Y-75789070D01*
X112542476Y-75774654D01*
X112559719Y-75761866D01*
X112578132Y-75750830D01*
X112597538Y-75741651D01*
X112617750Y-75734419D01*
X112638574Y-75729203D01*
X112659809Y-75726053D01*
X112681250Y-75725000D01*
X113118750Y-75725000D01*
X113140191Y-75726053D01*
G37*
G36*
X127865191Y-90726053D02*
G01*
X127886426Y-90729203D01*
X127907250Y-90734419D01*
X127927462Y-90741651D01*
X127946868Y-90750830D01*
X127965281Y-90761866D01*
X127982524Y-90774654D01*
X127998430Y-90789070D01*
X128012846Y-90804976D01*
X128025634Y-90822219D01*
X128036670Y-90840632D01*
X128045849Y-90860038D01*
X128053081Y-90880250D01*
X128058297Y-90901074D01*
X128061447Y-90922309D01*
X128062500Y-90943750D01*
X128062500Y-91456250D01*
X128061447Y-91477691D01*
X128058297Y-91498926D01*
X128053081Y-91519750D01*
X128045849Y-91539962D01*
X128036670Y-91559368D01*
X128025634Y-91577781D01*
X128012846Y-91595024D01*
X127998430Y-91610930D01*
X127982524Y-91625346D01*
X127965281Y-91638134D01*
X127946868Y-91649170D01*
X127927462Y-91658349D01*
X127907250Y-91665581D01*
X127886426Y-91670797D01*
X127865191Y-91673947D01*
X127843750Y-91675000D01*
X127406250Y-91675000D01*
X127384809Y-91673947D01*
X127363574Y-91670797D01*
X127342750Y-91665581D01*
X127322538Y-91658349D01*
X127303132Y-91649170D01*
X127284719Y-91638134D01*
X127267476Y-91625346D01*
X127251570Y-91610930D01*
X127237154Y-91595024D01*
X127224366Y-91577781D01*
X127213330Y-91559368D01*
X127204151Y-91539962D01*
X127196919Y-91519750D01*
X127191703Y-91498926D01*
X127188553Y-91477691D01*
X127187500Y-91456250D01*
X127187500Y-90943750D01*
X127188553Y-90922309D01*
X127191703Y-90901074D01*
X127196919Y-90880250D01*
X127204151Y-90860038D01*
X127213330Y-90840632D01*
X127224366Y-90822219D01*
X127237154Y-90804976D01*
X127251570Y-90789070D01*
X127267476Y-90774654D01*
X127284719Y-90761866D01*
X127303132Y-90750830D01*
X127322538Y-90741651D01*
X127342750Y-90734419D01*
X127363574Y-90729203D01*
X127384809Y-90726053D01*
X127406250Y-90725000D01*
X127843750Y-90725000D01*
X127865191Y-90726053D01*
G37*
G36*
X129440191Y-90726053D02*
G01*
X129461426Y-90729203D01*
X129482250Y-90734419D01*
X129502462Y-90741651D01*
X129521868Y-90750830D01*
X129540281Y-90761866D01*
X129557524Y-90774654D01*
X129573430Y-90789070D01*
X129587846Y-90804976D01*
X129600634Y-90822219D01*
X129611670Y-90840632D01*
X129620849Y-90860038D01*
X129628081Y-90880250D01*
X129633297Y-90901074D01*
X129636447Y-90922309D01*
X129637500Y-90943750D01*
X129637500Y-91456250D01*
X129636447Y-91477691D01*
X129633297Y-91498926D01*
X129628081Y-91519750D01*
X129620849Y-91539962D01*
X129611670Y-91559368D01*
X129600634Y-91577781D01*
X129587846Y-91595024D01*
X129573430Y-91610930D01*
X129557524Y-91625346D01*
X129540281Y-91638134D01*
X129521868Y-91649170D01*
X129502462Y-91658349D01*
X129482250Y-91665581D01*
X129461426Y-91670797D01*
X129440191Y-91673947D01*
X129418750Y-91675000D01*
X128981250Y-91675000D01*
X128959809Y-91673947D01*
X128938574Y-91670797D01*
X128917750Y-91665581D01*
X128897538Y-91658349D01*
X128878132Y-91649170D01*
X128859719Y-91638134D01*
X128842476Y-91625346D01*
X128826570Y-91610930D01*
X128812154Y-91595024D01*
X128799366Y-91577781D01*
X128788330Y-91559368D01*
X128779151Y-91539962D01*
X128771919Y-91519750D01*
X128766703Y-91498926D01*
X128763553Y-91477691D01*
X128762500Y-91456250D01*
X128762500Y-90943750D01*
X128763553Y-90922309D01*
X128766703Y-90901074D01*
X128771919Y-90880250D01*
X128779151Y-90860038D01*
X128788330Y-90840632D01*
X128799366Y-90822219D01*
X128812154Y-90804976D01*
X128826570Y-90789070D01*
X128842476Y-90774654D01*
X128859719Y-90761866D01*
X128878132Y-90750830D01*
X128897538Y-90741651D01*
X128917750Y-90734419D01*
X128938574Y-90729203D01*
X128959809Y-90726053D01*
X128981250Y-90725000D01*
X129418750Y-90725000D01*
X129440191Y-90726053D01*
G37*
G36*
X134177691Y-80776053D02*
G01*
X134198926Y-80779203D01*
X134219750Y-80784419D01*
X134239962Y-80791651D01*
X134259368Y-80800830D01*
X134277781Y-80811866D01*
X134295024Y-80824654D01*
X134310930Y-80839070D01*
X134325346Y-80854976D01*
X134338134Y-80872219D01*
X134349170Y-80890632D01*
X134358349Y-80910038D01*
X134365581Y-80930250D01*
X134370797Y-80951074D01*
X134373947Y-80972309D01*
X134375000Y-80993750D01*
X134375000Y-81431250D01*
X134373947Y-81452691D01*
X134370797Y-81473926D01*
X134365581Y-81494750D01*
X134358349Y-81514962D01*
X134349170Y-81534368D01*
X134338134Y-81552781D01*
X134325346Y-81570024D01*
X134310930Y-81585930D01*
X134295024Y-81600346D01*
X134277781Y-81613134D01*
X134259368Y-81624170D01*
X134239962Y-81633349D01*
X134219750Y-81640581D01*
X134198926Y-81645797D01*
X134177691Y-81648947D01*
X134156250Y-81650000D01*
X133643750Y-81650000D01*
X133622309Y-81648947D01*
X133601074Y-81645797D01*
X133580250Y-81640581D01*
X133560038Y-81633349D01*
X133540632Y-81624170D01*
X133522219Y-81613134D01*
X133504976Y-81600346D01*
X133489070Y-81585930D01*
X133474654Y-81570024D01*
X133461866Y-81552781D01*
X133450830Y-81534368D01*
X133441651Y-81514962D01*
X133434419Y-81494750D01*
X133429203Y-81473926D01*
X133426053Y-81452691D01*
X133425000Y-81431250D01*
X133425000Y-80993750D01*
X133426053Y-80972309D01*
X133429203Y-80951074D01*
X133434419Y-80930250D01*
X133441651Y-80910038D01*
X133450830Y-80890632D01*
X133461866Y-80872219D01*
X133474654Y-80854976D01*
X133489070Y-80839070D01*
X133504976Y-80824654D01*
X133522219Y-80811866D01*
X133540632Y-80800830D01*
X133560038Y-80791651D01*
X133580250Y-80784419D01*
X133601074Y-80779203D01*
X133622309Y-80776053D01*
X133643750Y-80775000D01*
X134156250Y-80775000D01*
X134177691Y-80776053D01*
G37*
G36*
X134177691Y-82351053D02*
G01*
X134198926Y-82354203D01*
X134219750Y-82359419D01*
X134239962Y-82366651D01*
X134259368Y-82375830D01*
X134277781Y-82386866D01*
X134295024Y-82399654D01*
X134310930Y-82414070D01*
X134325346Y-82429976D01*
X134338134Y-82447219D01*
X134349170Y-82465632D01*
X134358349Y-82485038D01*
X134365581Y-82505250D01*
X134370797Y-82526074D01*
X134373947Y-82547309D01*
X134375000Y-82568750D01*
X134375000Y-83006250D01*
X134373947Y-83027691D01*
X134370797Y-83048926D01*
X134365581Y-83069750D01*
X134358349Y-83089962D01*
X134349170Y-83109368D01*
X134338134Y-83127781D01*
X134325346Y-83145024D01*
X134310930Y-83160930D01*
X134295024Y-83175346D01*
X134277781Y-83188134D01*
X134259368Y-83199170D01*
X134239962Y-83208349D01*
X134219750Y-83215581D01*
X134198926Y-83220797D01*
X134177691Y-83223947D01*
X134156250Y-83225000D01*
X133643750Y-83225000D01*
X133622309Y-83223947D01*
X133601074Y-83220797D01*
X133580250Y-83215581D01*
X133560038Y-83208349D01*
X133540632Y-83199170D01*
X133522219Y-83188134D01*
X133504976Y-83175346D01*
X133489070Y-83160930D01*
X133474654Y-83145024D01*
X133461866Y-83127781D01*
X133450830Y-83109368D01*
X133441651Y-83089962D01*
X133434419Y-83069750D01*
X133429203Y-83048926D01*
X133426053Y-83027691D01*
X133425000Y-83006250D01*
X133425000Y-82568750D01*
X133426053Y-82547309D01*
X133429203Y-82526074D01*
X133434419Y-82505250D01*
X133441651Y-82485038D01*
X133450830Y-82465632D01*
X133461866Y-82447219D01*
X133474654Y-82429976D01*
X133489070Y-82414070D01*
X133504976Y-82399654D01*
X133522219Y-82386866D01*
X133540632Y-82375830D01*
X133560038Y-82366651D01*
X133580250Y-82359419D01*
X133601074Y-82354203D01*
X133622309Y-82351053D01*
X133643750Y-82350000D01*
X134156250Y-82350000D01*
X134177691Y-82351053D01*
G37*
G36*
X125577691Y-80638553D02*
G01*
X125598926Y-80641703D01*
X125619750Y-80646919D01*
X125639962Y-80654151D01*
X125659368Y-80663330D01*
X125677781Y-80674366D01*
X125695024Y-80687154D01*
X125710930Y-80701570D01*
X125725346Y-80717476D01*
X125738134Y-80734719D01*
X125749170Y-80753132D01*
X125758349Y-80772538D01*
X125765581Y-80792750D01*
X125770797Y-80813574D01*
X125773947Y-80834809D01*
X125775000Y-80856250D01*
X125775000Y-81293750D01*
X125773947Y-81315191D01*
X125770797Y-81336426D01*
X125765581Y-81357250D01*
X125758349Y-81377462D01*
X125749170Y-81396868D01*
X125738134Y-81415281D01*
X125725346Y-81432524D01*
X125710930Y-81448430D01*
X125695024Y-81462846D01*
X125677781Y-81475634D01*
X125659368Y-81486670D01*
X125639962Y-81495849D01*
X125619750Y-81503081D01*
X125598926Y-81508297D01*
X125577691Y-81511447D01*
X125556250Y-81512500D01*
X125043750Y-81512500D01*
X125022309Y-81511447D01*
X125001074Y-81508297D01*
X124980250Y-81503081D01*
X124960038Y-81495849D01*
X124940632Y-81486670D01*
X124922219Y-81475634D01*
X124904976Y-81462846D01*
X124889070Y-81448430D01*
X124874654Y-81432524D01*
X124861866Y-81415281D01*
X124850830Y-81396868D01*
X124841651Y-81377462D01*
X124834419Y-81357250D01*
X124829203Y-81336426D01*
X124826053Y-81315191D01*
X124825000Y-81293750D01*
X124825000Y-80856250D01*
X124826053Y-80834809D01*
X124829203Y-80813574D01*
X124834419Y-80792750D01*
X124841651Y-80772538D01*
X124850830Y-80753132D01*
X124861866Y-80734719D01*
X124874654Y-80717476D01*
X124889070Y-80701570D01*
X124904976Y-80687154D01*
X124922219Y-80674366D01*
X124940632Y-80663330D01*
X124960038Y-80654151D01*
X124980250Y-80646919D01*
X125001074Y-80641703D01*
X125022309Y-80638553D01*
X125043750Y-80637500D01*
X125556250Y-80637500D01*
X125577691Y-80638553D01*
G37*
G36*
X125577691Y-79063553D02*
G01*
X125598926Y-79066703D01*
X125619750Y-79071919D01*
X125639962Y-79079151D01*
X125659368Y-79088330D01*
X125677781Y-79099366D01*
X125695024Y-79112154D01*
X125710930Y-79126570D01*
X125725346Y-79142476D01*
X125738134Y-79159719D01*
X125749170Y-79178132D01*
X125758349Y-79197538D01*
X125765581Y-79217750D01*
X125770797Y-79238574D01*
X125773947Y-79259809D01*
X125775000Y-79281250D01*
X125775000Y-79718750D01*
X125773947Y-79740191D01*
X125770797Y-79761426D01*
X125765581Y-79782250D01*
X125758349Y-79802462D01*
X125749170Y-79821868D01*
X125738134Y-79840281D01*
X125725346Y-79857524D01*
X125710930Y-79873430D01*
X125695024Y-79887846D01*
X125677781Y-79900634D01*
X125659368Y-79911670D01*
X125639962Y-79920849D01*
X125619750Y-79928081D01*
X125598926Y-79933297D01*
X125577691Y-79936447D01*
X125556250Y-79937500D01*
X125043750Y-79937500D01*
X125022309Y-79936447D01*
X125001074Y-79933297D01*
X124980250Y-79928081D01*
X124960038Y-79920849D01*
X124940632Y-79911670D01*
X124922219Y-79900634D01*
X124904976Y-79887846D01*
X124889070Y-79873430D01*
X124874654Y-79857524D01*
X124861866Y-79840281D01*
X124850830Y-79821868D01*
X124841651Y-79802462D01*
X124834419Y-79782250D01*
X124829203Y-79761426D01*
X124826053Y-79740191D01*
X124825000Y-79718750D01*
X124825000Y-79281250D01*
X124826053Y-79259809D01*
X124829203Y-79238574D01*
X124834419Y-79217750D01*
X124841651Y-79197538D01*
X124850830Y-79178132D01*
X124861866Y-79159719D01*
X124874654Y-79142476D01*
X124889070Y-79126570D01*
X124904976Y-79112154D01*
X124922219Y-79099366D01*
X124940632Y-79088330D01*
X124960038Y-79079151D01*
X124980250Y-79071919D01*
X125001074Y-79066703D01*
X125022309Y-79063553D01*
X125043750Y-79062500D01*
X125556250Y-79062500D01*
X125577691Y-79063553D01*
G37*
G36*
X128915191Y-78426053D02*
G01*
X128936426Y-78429203D01*
X128957250Y-78434419D01*
X128977462Y-78441651D01*
X128996868Y-78450830D01*
X129015281Y-78461866D01*
X129032524Y-78474654D01*
X129048430Y-78489070D01*
X129062846Y-78504976D01*
X129075634Y-78522219D01*
X129086670Y-78540632D01*
X129095849Y-78560038D01*
X129103081Y-78580250D01*
X129108297Y-78601074D01*
X129111447Y-78622309D01*
X129112500Y-78643750D01*
X129112500Y-79156250D01*
X129111447Y-79177691D01*
X129108297Y-79198926D01*
X129103081Y-79219750D01*
X129095849Y-79239962D01*
X129086670Y-79259368D01*
X129075634Y-79277781D01*
X129062846Y-79295024D01*
X129048430Y-79310930D01*
X129032524Y-79325346D01*
X129015281Y-79338134D01*
X128996868Y-79349170D01*
X128977462Y-79358349D01*
X128957250Y-79365581D01*
X128936426Y-79370797D01*
X128915191Y-79373947D01*
X128893750Y-79375000D01*
X128456250Y-79375000D01*
X128434809Y-79373947D01*
X128413574Y-79370797D01*
X128392750Y-79365581D01*
X128372538Y-79358349D01*
X128353132Y-79349170D01*
X128334719Y-79338134D01*
X128317476Y-79325346D01*
X128301570Y-79310930D01*
X128287154Y-79295024D01*
X128274366Y-79277781D01*
X128263330Y-79259368D01*
X128254151Y-79239962D01*
X128246919Y-79219750D01*
X128241703Y-79198926D01*
X128238553Y-79177691D01*
X128237500Y-79156250D01*
X128237500Y-78643750D01*
X128238553Y-78622309D01*
X128241703Y-78601074D01*
X128246919Y-78580250D01*
X128254151Y-78560038D01*
X128263330Y-78540632D01*
X128274366Y-78522219D01*
X128287154Y-78504976D01*
X128301570Y-78489070D01*
X128317476Y-78474654D01*
X128334719Y-78461866D01*
X128353132Y-78450830D01*
X128372538Y-78441651D01*
X128392750Y-78434419D01*
X128413574Y-78429203D01*
X128434809Y-78426053D01*
X128456250Y-78425000D01*
X128893750Y-78425000D01*
X128915191Y-78426053D01*
G37*
G36*
X127340191Y-78426053D02*
G01*
X127361426Y-78429203D01*
X127382250Y-78434419D01*
X127402462Y-78441651D01*
X127421868Y-78450830D01*
X127440281Y-78461866D01*
X127457524Y-78474654D01*
X127473430Y-78489070D01*
X127487846Y-78504976D01*
X127500634Y-78522219D01*
X127511670Y-78540632D01*
X127520849Y-78560038D01*
X127528081Y-78580250D01*
X127533297Y-78601074D01*
X127536447Y-78622309D01*
X127537500Y-78643750D01*
X127537500Y-79156250D01*
X127536447Y-79177691D01*
X127533297Y-79198926D01*
X127528081Y-79219750D01*
X127520849Y-79239962D01*
X127511670Y-79259368D01*
X127500634Y-79277781D01*
X127487846Y-79295024D01*
X127473430Y-79310930D01*
X127457524Y-79325346D01*
X127440281Y-79338134D01*
X127421868Y-79349170D01*
X127402462Y-79358349D01*
X127382250Y-79365581D01*
X127361426Y-79370797D01*
X127340191Y-79373947D01*
X127318750Y-79375000D01*
X126881250Y-79375000D01*
X126859809Y-79373947D01*
X126838574Y-79370797D01*
X126817750Y-79365581D01*
X126797538Y-79358349D01*
X126778132Y-79349170D01*
X126759719Y-79338134D01*
X126742476Y-79325346D01*
X126726570Y-79310930D01*
X126712154Y-79295024D01*
X126699366Y-79277781D01*
X126688330Y-79259368D01*
X126679151Y-79239962D01*
X126671919Y-79219750D01*
X126666703Y-79198926D01*
X126663553Y-79177691D01*
X126662500Y-79156250D01*
X126662500Y-78643750D01*
X126663553Y-78622309D01*
X126666703Y-78601074D01*
X126671919Y-78580250D01*
X126679151Y-78560038D01*
X126688330Y-78540632D01*
X126699366Y-78522219D01*
X126712154Y-78504976D01*
X126726570Y-78489070D01*
X126742476Y-78474654D01*
X126759719Y-78461866D01*
X126778132Y-78450830D01*
X126797538Y-78441651D01*
X126817750Y-78434419D01*
X126838574Y-78429203D01*
X126859809Y-78426053D01*
X126881250Y-78425000D01*
X127318750Y-78425000D01*
X127340191Y-78426053D01*
G37*
G36*
X130777691Y-78138553D02*
G01*
X130798926Y-78141703D01*
X130819750Y-78146919D01*
X130839962Y-78154151D01*
X130859368Y-78163330D01*
X130877781Y-78174366D01*
X130895024Y-78187154D01*
X130910930Y-78201570D01*
X130925346Y-78217476D01*
X130938134Y-78234719D01*
X130949170Y-78253132D01*
X130958349Y-78272538D01*
X130965581Y-78292750D01*
X130970797Y-78313574D01*
X130973947Y-78334809D01*
X130975000Y-78356250D01*
X130975000Y-78793750D01*
X130973947Y-78815191D01*
X130970797Y-78836426D01*
X130965581Y-78857250D01*
X130958349Y-78877462D01*
X130949170Y-78896868D01*
X130938134Y-78915281D01*
X130925346Y-78932524D01*
X130910930Y-78948430D01*
X130895024Y-78962846D01*
X130877781Y-78975634D01*
X130859368Y-78986670D01*
X130839962Y-78995849D01*
X130819750Y-79003081D01*
X130798926Y-79008297D01*
X130777691Y-79011447D01*
X130756250Y-79012500D01*
X130243750Y-79012500D01*
X130222309Y-79011447D01*
X130201074Y-79008297D01*
X130180250Y-79003081D01*
X130160038Y-78995849D01*
X130140632Y-78986670D01*
X130122219Y-78975634D01*
X130104976Y-78962846D01*
X130089070Y-78948430D01*
X130074654Y-78932524D01*
X130061866Y-78915281D01*
X130050830Y-78896868D01*
X130041651Y-78877462D01*
X130034419Y-78857250D01*
X130029203Y-78836426D01*
X130026053Y-78815191D01*
X130025000Y-78793750D01*
X130025000Y-78356250D01*
X130026053Y-78334809D01*
X130029203Y-78313574D01*
X130034419Y-78292750D01*
X130041651Y-78272538D01*
X130050830Y-78253132D01*
X130061866Y-78234719D01*
X130074654Y-78217476D01*
X130089070Y-78201570D01*
X130104976Y-78187154D01*
X130122219Y-78174366D01*
X130140632Y-78163330D01*
X130160038Y-78154151D01*
X130180250Y-78146919D01*
X130201074Y-78141703D01*
X130222309Y-78138553D01*
X130243750Y-78137500D01*
X130756250Y-78137500D01*
X130777691Y-78138553D01*
G37*
G36*
X130777691Y-76563553D02*
G01*
X130798926Y-76566703D01*
X130819750Y-76571919D01*
X130839962Y-76579151D01*
X130859368Y-76588330D01*
X130877781Y-76599366D01*
X130895024Y-76612154D01*
X130910930Y-76626570D01*
X130925346Y-76642476D01*
X130938134Y-76659719D01*
X130949170Y-76678132D01*
X130958349Y-76697538D01*
X130965581Y-76717750D01*
X130970797Y-76738574D01*
X130973947Y-76759809D01*
X130975000Y-76781250D01*
X130975000Y-77218750D01*
X130973947Y-77240191D01*
X130970797Y-77261426D01*
X130965581Y-77282250D01*
X130958349Y-77302462D01*
X130949170Y-77321868D01*
X130938134Y-77340281D01*
X130925346Y-77357524D01*
X130910930Y-77373430D01*
X130895024Y-77387846D01*
X130877781Y-77400634D01*
X130859368Y-77411670D01*
X130839962Y-77420849D01*
X130819750Y-77428081D01*
X130798926Y-77433297D01*
X130777691Y-77436447D01*
X130756250Y-77437500D01*
X130243750Y-77437500D01*
X130222309Y-77436447D01*
X130201074Y-77433297D01*
X130180250Y-77428081D01*
X130160038Y-77420849D01*
X130140632Y-77411670D01*
X130122219Y-77400634D01*
X130104976Y-77387846D01*
X130089070Y-77373430D01*
X130074654Y-77357524D01*
X130061866Y-77340281D01*
X130050830Y-77321868D01*
X130041651Y-77302462D01*
X130034419Y-77282250D01*
X130029203Y-77261426D01*
X130026053Y-77240191D01*
X130025000Y-77218750D01*
X130025000Y-76781250D01*
X130026053Y-76759809D01*
X130029203Y-76738574D01*
X130034419Y-76717750D01*
X130041651Y-76697538D01*
X130050830Y-76678132D01*
X130061866Y-76659719D01*
X130074654Y-76642476D01*
X130089070Y-76626570D01*
X130104976Y-76612154D01*
X130122219Y-76599366D01*
X130140632Y-76588330D01*
X130160038Y-76579151D01*
X130180250Y-76571919D01*
X130201074Y-76566703D01*
X130222309Y-76563553D01*
X130243750Y-76562500D01*
X130756250Y-76562500D01*
X130777691Y-76563553D01*
G37*
G36*
X121439703Y-77200722D02*
G01*
X121454264Y-77202882D01*
X121468543Y-77206459D01*
X121482403Y-77211418D01*
X121495710Y-77217712D01*
X121508336Y-77225280D01*
X121520159Y-77234048D01*
X121531066Y-77243934D01*
X121540952Y-77254841D01*
X121549720Y-77266664D01*
X121557288Y-77279290D01*
X121563582Y-77292597D01*
X121568541Y-77306457D01*
X121572118Y-77320736D01*
X121574278Y-77335297D01*
X121575000Y-77350000D01*
X121575000Y-77650000D01*
X121574278Y-77664703D01*
X121572118Y-77679264D01*
X121568541Y-77693543D01*
X121563582Y-77707403D01*
X121557288Y-77720710D01*
X121549720Y-77733336D01*
X121540952Y-77745159D01*
X121531066Y-77756066D01*
X121520159Y-77765952D01*
X121508336Y-77774720D01*
X121495710Y-77782288D01*
X121482403Y-77788582D01*
X121468543Y-77793541D01*
X121454264Y-77797118D01*
X121439703Y-77799278D01*
X121425000Y-77800000D01*
X119775000Y-77800000D01*
X119760297Y-77799278D01*
X119745736Y-77797118D01*
X119731457Y-77793541D01*
X119717597Y-77788582D01*
X119704290Y-77782288D01*
X119691664Y-77774720D01*
X119679841Y-77765952D01*
X119668934Y-77756066D01*
X119659048Y-77745159D01*
X119650280Y-77733336D01*
X119642712Y-77720710D01*
X119636418Y-77707403D01*
X119631459Y-77693543D01*
X119627882Y-77679264D01*
X119625722Y-77664703D01*
X119625000Y-77650000D01*
X119625000Y-77350000D01*
X119625722Y-77335297D01*
X119627882Y-77320736D01*
X119631459Y-77306457D01*
X119636418Y-77292597D01*
X119642712Y-77279290D01*
X119650280Y-77266664D01*
X119659048Y-77254841D01*
X119668934Y-77243934D01*
X119679841Y-77234048D01*
X119691664Y-77225280D01*
X119704290Y-77217712D01*
X119717597Y-77211418D01*
X119731457Y-77206459D01*
X119745736Y-77202882D01*
X119760297Y-77200722D01*
X119775000Y-77200000D01*
X121425000Y-77200000D01*
X121439703Y-77200722D01*
G37*
G36*
X121439703Y-75930722D02*
G01*
X121454264Y-75932882D01*
X121468543Y-75936459D01*
X121482403Y-75941418D01*
X121495710Y-75947712D01*
X121508336Y-75955280D01*
X121520159Y-75964048D01*
X121531066Y-75973934D01*
X121540952Y-75984841D01*
X121549720Y-75996664D01*
X121557288Y-76009290D01*
X121563582Y-76022597D01*
X121568541Y-76036457D01*
X121572118Y-76050736D01*
X121574278Y-76065297D01*
X121575000Y-76080000D01*
X121575000Y-76380000D01*
X121574278Y-76394703D01*
X121572118Y-76409264D01*
X121568541Y-76423543D01*
X121563582Y-76437403D01*
X121557288Y-76450710D01*
X121549720Y-76463336D01*
X121540952Y-76475159D01*
X121531066Y-76486066D01*
X121520159Y-76495952D01*
X121508336Y-76504720D01*
X121495710Y-76512288D01*
X121482403Y-76518582D01*
X121468543Y-76523541D01*
X121454264Y-76527118D01*
X121439703Y-76529278D01*
X121425000Y-76530000D01*
X119775000Y-76530000D01*
X119760297Y-76529278D01*
X119745736Y-76527118D01*
X119731457Y-76523541D01*
X119717597Y-76518582D01*
X119704290Y-76512288D01*
X119691664Y-76504720D01*
X119679841Y-76495952D01*
X119668934Y-76486066D01*
X119659048Y-76475159D01*
X119650280Y-76463336D01*
X119642712Y-76450710D01*
X119636418Y-76437403D01*
X119631459Y-76423543D01*
X119627882Y-76409264D01*
X119625722Y-76394703D01*
X119625000Y-76380000D01*
X119625000Y-76080000D01*
X119625722Y-76065297D01*
X119627882Y-76050736D01*
X119631459Y-76036457D01*
X119636418Y-76022597D01*
X119642712Y-76009290D01*
X119650280Y-75996664D01*
X119659048Y-75984841D01*
X119668934Y-75973934D01*
X119679841Y-75964048D01*
X119691664Y-75955280D01*
X119704290Y-75947712D01*
X119717597Y-75941418D01*
X119731457Y-75936459D01*
X119745736Y-75932882D01*
X119760297Y-75930722D01*
X119775000Y-75930000D01*
X121425000Y-75930000D01*
X121439703Y-75930722D01*
G37*
G36*
X121439703Y-74660722D02*
G01*
X121454264Y-74662882D01*
X121468543Y-74666459D01*
X121482403Y-74671418D01*
X121495710Y-74677712D01*
X121508336Y-74685280D01*
X121520159Y-74694048D01*
X121531066Y-74703934D01*
X121540952Y-74714841D01*
X121549720Y-74726664D01*
X121557288Y-74739290D01*
X121563582Y-74752597D01*
X121568541Y-74766457D01*
X121572118Y-74780736D01*
X121574278Y-74795297D01*
X121575000Y-74810000D01*
X121575000Y-75110000D01*
X121574278Y-75124703D01*
X121572118Y-75139264D01*
X121568541Y-75153543D01*
X121563582Y-75167403D01*
X121557288Y-75180710D01*
X121549720Y-75193336D01*
X121540952Y-75205159D01*
X121531066Y-75216066D01*
X121520159Y-75225952D01*
X121508336Y-75234720D01*
X121495710Y-75242288D01*
X121482403Y-75248582D01*
X121468543Y-75253541D01*
X121454264Y-75257118D01*
X121439703Y-75259278D01*
X121425000Y-75260000D01*
X119775000Y-75260000D01*
X119760297Y-75259278D01*
X119745736Y-75257118D01*
X119731457Y-75253541D01*
X119717597Y-75248582D01*
X119704290Y-75242288D01*
X119691664Y-75234720D01*
X119679841Y-75225952D01*
X119668934Y-75216066D01*
X119659048Y-75205159D01*
X119650280Y-75193336D01*
X119642712Y-75180710D01*
X119636418Y-75167403D01*
X119631459Y-75153543D01*
X119627882Y-75139264D01*
X119625722Y-75124703D01*
X119625000Y-75110000D01*
X119625000Y-74810000D01*
X119625722Y-74795297D01*
X119627882Y-74780736D01*
X119631459Y-74766457D01*
X119636418Y-74752597D01*
X119642712Y-74739290D01*
X119650280Y-74726664D01*
X119659048Y-74714841D01*
X119668934Y-74703934D01*
X119679841Y-74694048D01*
X119691664Y-74685280D01*
X119704290Y-74677712D01*
X119717597Y-74671418D01*
X119731457Y-74666459D01*
X119745736Y-74662882D01*
X119760297Y-74660722D01*
X119775000Y-74660000D01*
X121425000Y-74660000D01*
X121439703Y-74660722D01*
G37*
G36*
X121439703Y-73390722D02*
G01*
X121454264Y-73392882D01*
X121468543Y-73396459D01*
X121482403Y-73401418D01*
X121495710Y-73407712D01*
X121508336Y-73415280D01*
X121520159Y-73424048D01*
X121531066Y-73433934D01*
X121540952Y-73444841D01*
X121549720Y-73456664D01*
X121557288Y-73469290D01*
X121563582Y-73482597D01*
X121568541Y-73496457D01*
X121572118Y-73510736D01*
X121574278Y-73525297D01*
X121575000Y-73540000D01*
X121575000Y-73840000D01*
X121574278Y-73854703D01*
X121572118Y-73869264D01*
X121568541Y-73883543D01*
X121563582Y-73897403D01*
X121557288Y-73910710D01*
X121549720Y-73923336D01*
X121540952Y-73935159D01*
X121531066Y-73946066D01*
X121520159Y-73955952D01*
X121508336Y-73964720D01*
X121495710Y-73972288D01*
X121482403Y-73978582D01*
X121468543Y-73983541D01*
X121454264Y-73987118D01*
X121439703Y-73989278D01*
X121425000Y-73990000D01*
X119775000Y-73990000D01*
X119760297Y-73989278D01*
X119745736Y-73987118D01*
X119731457Y-73983541D01*
X119717597Y-73978582D01*
X119704290Y-73972288D01*
X119691664Y-73964720D01*
X119679841Y-73955952D01*
X119668934Y-73946066D01*
X119659048Y-73935159D01*
X119650280Y-73923336D01*
X119642712Y-73910710D01*
X119636418Y-73897403D01*
X119631459Y-73883543D01*
X119627882Y-73869264D01*
X119625722Y-73854703D01*
X119625000Y-73840000D01*
X119625000Y-73540000D01*
X119625722Y-73525297D01*
X119627882Y-73510736D01*
X119631459Y-73496457D01*
X119636418Y-73482597D01*
X119642712Y-73469290D01*
X119650280Y-73456664D01*
X119659048Y-73444841D01*
X119668934Y-73433934D01*
X119679841Y-73424048D01*
X119691664Y-73415280D01*
X119704290Y-73407712D01*
X119717597Y-73401418D01*
X119731457Y-73396459D01*
X119745736Y-73392882D01*
X119760297Y-73390722D01*
X119775000Y-73390000D01*
X121425000Y-73390000D01*
X121439703Y-73390722D01*
G37*
G36*
X116489703Y-73390722D02*
G01*
X116504264Y-73392882D01*
X116518543Y-73396459D01*
X116532403Y-73401418D01*
X116545710Y-73407712D01*
X116558336Y-73415280D01*
X116570159Y-73424048D01*
X116581066Y-73433934D01*
X116590952Y-73444841D01*
X116599720Y-73456664D01*
X116607288Y-73469290D01*
X116613582Y-73482597D01*
X116618541Y-73496457D01*
X116622118Y-73510736D01*
X116624278Y-73525297D01*
X116625000Y-73540000D01*
X116625000Y-73840000D01*
X116624278Y-73854703D01*
X116622118Y-73869264D01*
X116618541Y-73883543D01*
X116613582Y-73897403D01*
X116607288Y-73910710D01*
X116599720Y-73923336D01*
X116590952Y-73935159D01*
X116581066Y-73946066D01*
X116570159Y-73955952D01*
X116558336Y-73964720D01*
X116545710Y-73972288D01*
X116532403Y-73978582D01*
X116518543Y-73983541D01*
X116504264Y-73987118D01*
X116489703Y-73989278D01*
X116475000Y-73990000D01*
X114825000Y-73990000D01*
X114810297Y-73989278D01*
X114795736Y-73987118D01*
X114781457Y-73983541D01*
X114767597Y-73978582D01*
X114754290Y-73972288D01*
X114741664Y-73964720D01*
X114729841Y-73955952D01*
X114718934Y-73946066D01*
X114709048Y-73935159D01*
X114700280Y-73923336D01*
X114692712Y-73910710D01*
X114686418Y-73897403D01*
X114681459Y-73883543D01*
X114677882Y-73869264D01*
X114675722Y-73854703D01*
X114675000Y-73840000D01*
X114675000Y-73540000D01*
X114675722Y-73525297D01*
X114677882Y-73510736D01*
X114681459Y-73496457D01*
X114686418Y-73482597D01*
X114692712Y-73469290D01*
X114700280Y-73456664D01*
X114709048Y-73444841D01*
X114718934Y-73433934D01*
X114729841Y-73424048D01*
X114741664Y-73415280D01*
X114754290Y-73407712D01*
X114767597Y-73401418D01*
X114781457Y-73396459D01*
X114795736Y-73392882D01*
X114810297Y-73390722D01*
X114825000Y-73390000D01*
X116475000Y-73390000D01*
X116489703Y-73390722D01*
G37*
G36*
X116489703Y-74660722D02*
G01*
X116504264Y-74662882D01*
X116518543Y-74666459D01*
X116532403Y-74671418D01*
X116545710Y-74677712D01*
X116558336Y-74685280D01*
X116570159Y-74694048D01*
X116581066Y-74703934D01*
X116590952Y-74714841D01*
X116599720Y-74726664D01*
X116607288Y-74739290D01*
X116613582Y-74752597D01*
X116618541Y-74766457D01*
X116622118Y-74780736D01*
X116624278Y-74795297D01*
X116625000Y-74810000D01*
X116625000Y-75110000D01*
X116624278Y-75124703D01*
X116622118Y-75139264D01*
X116618541Y-75153543D01*
X116613582Y-75167403D01*
X116607288Y-75180710D01*
X116599720Y-75193336D01*
X116590952Y-75205159D01*
X116581066Y-75216066D01*
X116570159Y-75225952D01*
X116558336Y-75234720D01*
X116545710Y-75242288D01*
X116532403Y-75248582D01*
X116518543Y-75253541D01*
X116504264Y-75257118D01*
X116489703Y-75259278D01*
X116475000Y-75260000D01*
X114825000Y-75260000D01*
X114810297Y-75259278D01*
X114795736Y-75257118D01*
X114781457Y-75253541D01*
X114767597Y-75248582D01*
X114754290Y-75242288D01*
X114741664Y-75234720D01*
X114729841Y-75225952D01*
X114718934Y-75216066D01*
X114709048Y-75205159D01*
X114700280Y-75193336D01*
X114692712Y-75180710D01*
X114686418Y-75167403D01*
X114681459Y-75153543D01*
X114677882Y-75139264D01*
X114675722Y-75124703D01*
X114675000Y-75110000D01*
X114675000Y-74810000D01*
X114675722Y-74795297D01*
X114677882Y-74780736D01*
X114681459Y-74766457D01*
X114686418Y-74752597D01*
X114692712Y-74739290D01*
X114700280Y-74726664D01*
X114709048Y-74714841D01*
X114718934Y-74703934D01*
X114729841Y-74694048D01*
X114741664Y-74685280D01*
X114754290Y-74677712D01*
X114767597Y-74671418D01*
X114781457Y-74666459D01*
X114795736Y-74662882D01*
X114810297Y-74660722D01*
X114825000Y-74660000D01*
X116475000Y-74660000D01*
X116489703Y-74660722D01*
G37*
G36*
X116489703Y-75930722D02*
G01*
X116504264Y-75932882D01*
X116518543Y-75936459D01*
X116532403Y-75941418D01*
X116545710Y-75947712D01*
X116558336Y-75955280D01*
X116570159Y-75964048D01*
X116581066Y-75973934D01*
X116590952Y-75984841D01*
X116599720Y-75996664D01*
X116607288Y-76009290D01*
X116613582Y-76022597D01*
X116618541Y-76036457D01*
X116622118Y-76050736D01*
X116624278Y-76065297D01*
X116625000Y-76080000D01*
X116625000Y-76380000D01*
X116624278Y-76394703D01*
X116622118Y-76409264D01*
X116618541Y-76423543D01*
X116613582Y-76437403D01*
X116607288Y-76450710D01*
X116599720Y-76463336D01*
X116590952Y-76475159D01*
X116581066Y-76486066D01*
X116570159Y-76495952D01*
X116558336Y-76504720D01*
X116545710Y-76512288D01*
X116532403Y-76518582D01*
X116518543Y-76523541D01*
X116504264Y-76527118D01*
X116489703Y-76529278D01*
X116475000Y-76530000D01*
X114825000Y-76530000D01*
X114810297Y-76529278D01*
X114795736Y-76527118D01*
X114781457Y-76523541D01*
X114767597Y-76518582D01*
X114754290Y-76512288D01*
X114741664Y-76504720D01*
X114729841Y-76495952D01*
X114718934Y-76486066D01*
X114709048Y-76475159D01*
X114700280Y-76463336D01*
X114692712Y-76450710D01*
X114686418Y-76437403D01*
X114681459Y-76423543D01*
X114677882Y-76409264D01*
X114675722Y-76394703D01*
X114675000Y-76380000D01*
X114675000Y-76080000D01*
X114675722Y-76065297D01*
X114677882Y-76050736D01*
X114681459Y-76036457D01*
X114686418Y-76022597D01*
X114692712Y-76009290D01*
X114700280Y-75996664D01*
X114709048Y-75984841D01*
X114718934Y-75973934D01*
X114729841Y-75964048D01*
X114741664Y-75955280D01*
X114754290Y-75947712D01*
X114767597Y-75941418D01*
X114781457Y-75936459D01*
X114795736Y-75932882D01*
X114810297Y-75930722D01*
X114825000Y-75930000D01*
X116475000Y-75930000D01*
X116489703Y-75930722D01*
G37*
G36*
X116489703Y-77200722D02*
G01*
X116504264Y-77202882D01*
X116518543Y-77206459D01*
X116532403Y-77211418D01*
X116545710Y-77217712D01*
X116558336Y-77225280D01*
X116570159Y-77234048D01*
X116581066Y-77243934D01*
X116590952Y-77254841D01*
X116599720Y-77266664D01*
X116607288Y-77279290D01*
X116613582Y-77292597D01*
X116618541Y-77306457D01*
X116622118Y-77320736D01*
X116624278Y-77335297D01*
X116625000Y-77350000D01*
X116625000Y-77650000D01*
X116624278Y-77664703D01*
X116622118Y-77679264D01*
X116618541Y-77693543D01*
X116613582Y-77707403D01*
X116607288Y-77720710D01*
X116599720Y-77733336D01*
X116590952Y-77745159D01*
X116581066Y-77756066D01*
X116570159Y-77765952D01*
X116558336Y-77774720D01*
X116545710Y-77782288D01*
X116532403Y-77788582D01*
X116518543Y-77793541D01*
X116504264Y-77797118D01*
X116489703Y-77799278D01*
X116475000Y-77800000D01*
X114825000Y-77800000D01*
X114810297Y-77799278D01*
X114795736Y-77797118D01*
X114781457Y-77793541D01*
X114767597Y-77788582D01*
X114754290Y-77782288D01*
X114741664Y-77774720D01*
X114729841Y-77765952D01*
X114718934Y-77756066D01*
X114709048Y-77745159D01*
X114700280Y-77733336D01*
X114692712Y-77720710D01*
X114686418Y-77707403D01*
X114681459Y-77693543D01*
X114677882Y-77679264D01*
X114675722Y-77664703D01*
X114675000Y-77650000D01*
X114675000Y-77350000D01*
X114675722Y-77335297D01*
X114677882Y-77320736D01*
X114681459Y-77306457D01*
X114686418Y-77292597D01*
X114692712Y-77279290D01*
X114700280Y-77266664D01*
X114709048Y-77254841D01*
X114718934Y-77243934D01*
X114729841Y-77234048D01*
X114741664Y-77225280D01*
X114754290Y-77217712D01*
X114767597Y-77211418D01*
X114781457Y-77206459D01*
X114795736Y-77202882D01*
X114810297Y-77200722D01*
X114825000Y-77200000D01*
X116475000Y-77200000D01*
X116489703Y-77200722D01*
G37*
D14*
X133619400Y-84625001D03*
X133619400Y-85275002D03*
X133619400Y-85925001D03*
X133619400Y-86575002D03*
X133619400Y-87225001D03*
X133619400Y-87874999D03*
X133619400Y-88525001D03*
X133619400Y-89174999D03*
X127980600Y-89174999D03*
X127980600Y-88524998D03*
X127980600Y-87874999D03*
X127980600Y-87224998D03*
X127980600Y-86574999D03*
X127980600Y-85925001D03*
X127980600Y-85274999D03*
X127980600Y-84625001D03*
D15*
X130293800Y-82750001D03*
X130293800Y-81800000D03*
X130293800Y-80849999D03*
X127906200Y-80849999D03*
X127906200Y-82750001D03*
D16*
X124000000Y-90000000D03*
X125800000Y-90000000D03*
X125800000Y-91200000D03*
X124000000Y-91200000D03*
D10*
G36*
X122477691Y-90938553D02*
G01*
X122498926Y-90941703D01*
X122519750Y-90946919D01*
X122539962Y-90954151D01*
X122559368Y-90963330D01*
X122577781Y-90974366D01*
X122595024Y-90987154D01*
X122610930Y-91001570D01*
X122625346Y-91017476D01*
X122638134Y-91034719D01*
X122649170Y-91053132D01*
X122658349Y-91072538D01*
X122665581Y-91092750D01*
X122670797Y-91113574D01*
X122673947Y-91134809D01*
X122675000Y-91156250D01*
X122675000Y-91593750D01*
X122673947Y-91615191D01*
X122670797Y-91636426D01*
X122665581Y-91657250D01*
X122658349Y-91677462D01*
X122649170Y-91696868D01*
X122638134Y-91715281D01*
X122625346Y-91732524D01*
X122610930Y-91748430D01*
X122595024Y-91762846D01*
X122577781Y-91775634D01*
X122559368Y-91786670D01*
X122539962Y-91795849D01*
X122519750Y-91803081D01*
X122498926Y-91808297D01*
X122477691Y-91811447D01*
X122456250Y-91812500D01*
X121943750Y-91812500D01*
X121922309Y-91811447D01*
X121901074Y-91808297D01*
X121880250Y-91803081D01*
X121860038Y-91795849D01*
X121840632Y-91786670D01*
X121822219Y-91775634D01*
X121804976Y-91762846D01*
X121789070Y-91748430D01*
X121774654Y-91732524D01*
X121761866Y-91715281D01*
X121750830Y-91696868D01*
X121741651Y-91677462D01*
X121734419Y-91657250D01*
X121729203Y-91636426D01*
X121726053Y-91615191D01*
X121725000Y-91593750D01*
X121725000Y-91156250D01*
X121726053Y-91134809D01*
X121729203Y-91113574D01*
X121734419Y-91092750D01*
X121741651Y-91072538D01*
X121750830Y-91053132D01*
X121761866Y-91034719D01*
X121774654Y-91017476D01*
X121789070Y-91001570D01*
X121804976Y-90987154D01*
X121822219Y-90974366D01*
X121840632Y-90963330D01*
X121860038Y-90954151D01*
X121880250Y-90946919D01*
X121901074Y-90941703D01*
X121922309Y-90938553D01*
X121943750Y-90937500D01*
X122456250Y-90937500D01*
X122477691Y-90938553D01*
G37*
G36*
X122477691Y-89363553D02*
G01*
X122498926Y-89366703D01*
X122519750Y-89371919D01*
X122539962Y-89379151D01*
X122559368Y-89388330D01*
X122577781Y-89399366D01*
X122595024Y-89412154D01*
X122610930Y-89426570D01*
X122625346Y-89442476D01*
X122638134Y-89459719D01*
X122649170Y-89478132D01*
X122658349Y-89497538D01*
X122665581Y-89517750D01*
X122670797Y-89538574D01*
X122673947Y-89559809D01*
X122675000Y-89581250D01*
X122675000Y-90018750D01*
X122673947Y-90040191D01*
X122670797Y-90061426D01*
X122665581Y-90082250D01*
X122658349Y-90102462D01*
X122649170Y-90121868D01*
X122638134Y-90140281D01*
X122625346Y-90157524D01*
X122610930Y-90173430D01*
X122595024Y-90187846D01*
X122577781Y-90200634D01*
X122559368Y-90211670D01*
X122539962Y-90220849D01*
X122519750Y-90228081D01*
X122498926Y-90233297D01*
X122477691Y-90236447D01*
X122456250Y-90237500D01*
X121943750Y-90237500D01*
X121922309Y-90236447D01*
X121901074Y-90233297D01*
X121880250Y-90228081D01*
X121860038Y-90220849D01*
X121840632Y-90211670D01*
X121822219Y-90200634D01*
X121804976Y-90187846D01*
X121789070Y-90173430D01*
X121774654Y-90157524D01*
X121761866Y-90140281D01*
X121750830Y-90121868D01*
X121741651Y-90102462D01*
X121734419Y-90082250D01*
X121729203Y-90061426D01*
X121726053Y-90040191D01*
X121725000Y-90018750D01*
X121725000Y-89581250D01*
X121726053Y-89559809D01*
X121729203Y-89538574D01*
X121734419Y-89517750D01*
X121741651Y-89497538D01*
X121750830Y-89478132D01*
X121761866Y-89459719D01*
X121774654Y-89442476D01*
X121789070Y-89426570D01*
X121804976Y-89412154D01*
X121822219Y-89399366D01*
X121840632Y-89388330D01*
X121860038Y-89379151D01*
X121880250Y-89371919D01*
X121901074Y-89366703D01*
X121922309Y-89363553D01*
X121943750Y-89362500D01*
X122456250Y-89362500D01*
X122477691Y-89363553D01*
G37*
D13*
X133700000Y-77600000D03*
M02*
