G04 #@! TF.GenerationSoftware,KiCad,Pcbnew,(5.1.5)-3*
G04 #@! TF.CreationDate,2020-11-19T18:47:54+01:00*
G04 #@! TF.ProjectId,Sensor_2.0,53656e73-6f72-45f3-922e-302e6b696361,rev?*
G04 #@! TF.SameCoordinates,Original*
G04 #@! TF.FileFunction,Legend,Top*
G04 #@! TF.FilePolarity,Positive*
%FSLAX46Y46*%
G04 Gerber Fmt 4.6, Leading zero omitted, Abs format (unit mm)*
G04 Created by KiCad (PCBNEW (5.1.5)-3) date 2020-11-19 18:47:54*
%MOMM*%
%LPD*%
G04 APERTURE LIST*
%ADD10C,0.125000*%
%ADD11C,0.300000*%
%ADD12C,0.120000*%
%ADD13C,0.100000*%
%ADD14C,0.152400*%
%ADD15C,0.254000*%
%ADD16C,0.150000*%
%ADD17C,0.050000*%
G04 APERTURE END LIST*
D10*
X123333095Y-92936190D02*
X123333095Y-92436190D01*
X123618809Y-92936190D02*
X123404523Y-92650476D01*
X123618809Y-92436190D02*
X123333095Y-92721904D01*
X124118809Y-92888571D02*
X124095000Y-92912380D01*
X124023571Y-92936190D01*
X123975952Y-92936190D01*
X123904523Y-92912380D01*
X123856904Y-92864761D01*
X123833095Y-92817142D01*
X123809285Y-92721904D01*
X123809285Y-92650476D01*
X123833095Y-92555238D01*
X123856904Y-92507619D01*
X123904523Y-92460000D01*
X123975952Y-92436190D01*
X124023571Y-92436190D01*
X124095000Y-92460000D01*
X124118809Y-92483809D01*
X124309285Y-92483809D02*
X124333095Y-92460000D01*
X124380714Y-92436190D01*
X124499761Y-92436190D01*
X124547380Y-92460000D01*
X124571190Y-92483809D01*
X124595000Y-92531428D01*
X124595000Y-92579047D01*
X124571190Y-92650476D01*
X124285476Y-92936190D01*
X124595000Y-92936190D01*
X124904523Y-92436190D02*
X124952142Y-92436190D01*
X124999761Y-92460000D01*
X125023571Y-92483809D01*
X125047380Y-92531428D01*
X125071190Y-92626666D01*
X125071190Y-92745714D01*
X125047380Y-92840952D01*
X125023571Y-92888571D01*
X124999761Y-92912380D01*
X124952142Y-92936190D01*
X124904523Y-92936190D01*
X124856904Y-92912380D01*
X124833095Y-92888571D01*
X124809285Y-92840952D01*
X124785476Y-92745714D01*
X124785476Y-92626666D01*
X124809285Y-92531428D01*
X124833095Y-92483809D01*
X124856904Y-92460000D01*
X124904523Y-92436190D01*
X125547380Y-92936190D02*
X125261666Y-92936190D01*
X125404523Y-92936190D02*
X125404523Y-92436190D01*
X125356904Y-92507619D01*
X125309285Y-92555238D01*
X125261666Y-92579047D01*
X125975952Y-92436190D02*
X125880714Y-92436190D01*
X125833095Y-92460000D01*
X125809285Y-92483809D01*
X125761666Y-92555238D01*
X125737857Y-92650476D01*
X125737857Y-92840952D01*
X125761666Y-92888571D01*
X125785476Y-92912380D01*
X125833095Y-92936190D01*
X125928333Y-92936190D01*
X125975952Y-92912380D01*
X125999761Y-92888571D01*
X126023571Y-92840952D01*
X126023571Y-92721904D01*
X125999761Y-92674285D01*
X125975952Y-92650476D01*
X125928333Y-92626666D01*
X125833095Y-92626666D01*
X125785476Y-92650476D01*
X125761666Y-92674285D01*
X125737857Y-92721904D01*
X126190238Y-92436190D02*
X126523571Y-92436190D01*
X126190238Y-92936190D01*
X126523571Y-92936190D01*
X110109047Y-89285000D02*
X110061428Y-89261190D01*
X109990000Y-89261190D01*
X109918571Y-89285000D01*
X109870952Y-89332619D01*
X109847142Y-89380238D01*
X109823333Y-89475476D01*
X109823333Y-89546904D01*
X109847142Y-89642142D01*
X109870952Y-89689761D01*
X109918571Y-89737380D01*
X109990000Y-89761190D01*
X110037619Y-89761190D01*
X110109047Y-89737380D01*
X110132857Y-89713571D01*
X110132857Y-89546904D01*
X110037619Y-89546904D01*
X110347142Y-89761190D02*
X110347142Y-89261190D01*
X110632857Y-89761190D01*
X110632857Y-89261190D01*
X110870952Y-89761190D02*
X110870952Y-89261190D01*
X110990000Y-89261190D01*
X111061428Y-89285000D01*
X111109047Y-89332619D01*
X111132857Y-89380238D01*
X111156666Y-89475476D01*
X111156666Y-89546904D01*
X111132857Y-89642142D01*
X111109047Y-89689761D01*
X111061428Y-89737380D01*
X110990000Y-89761190D01*
X110870952Y-89761190D01*
X110001904Y-88443571D02*
X109978095Y-88467380D01*
X109906666Y-88491190D01*
X109859047Y-88491190D01*
X109787619Y-88467380D01*
X109740000Y-88419761D01*
X109716190Y-88372142D01*
X109692380Y-88276904D01*
X109692380Y-88205476D01*
X109716190Y-88110238D01*
X109740000Y-88062619D01*
X109787619Y-88015000D01*
X109859047Y-87991190D01*
X109906666Y-87991190D01*
X109978095Y-88015000D01*
X110001904Y-88038809D01*
X110144761Y-87991190D02*
X110430476Y-87991190D01*
X110287619Y-88491190D02*
X110287619Y-87991190D01*
X110882857Y-88491190D02*
X110716190Y-88253095D01*
X110597142Y-88491190D02*
X110597142Y-87991190D01*
X110787619Y-87991190D01*
X110835238Y-88015000D01*
X110859047Y-88038809D01*
X110882857Y-88086428D01*
X110882857Y-88157857D01*
X110859047Y-88205476D01*
X110835238Y-88229285D01*
X110787619Y-88253095D01*
X110597142Y-88253095D01*
X111335238Y-88491190D02*
X111097142Y-88491190D01*
X111097142Y-87991190D01*
X109478095Y-87197380D02*
X109549523Y-87221190D01*
X109668571Y-87221190D01*
X109716190Y-87197380D01*
X109740000Y-87173571D01*
X109763809Y-87125952D01*
X109763809Y-87078333D01*
X109740000Y-87030714D01*
X109716190Y-87006904D01*
X109668571Y-86983095D01*
X109573333Y-86959285D01*
X109525714Y-86935476D01*
X109501904Y-86911666D01*
X109478095Y-86864047D01*
X109478095Y-86816428D01*
X109501904Y-86768809D01*
X109525714Y-86745000D01*
X109573333Y-86721190D01*
X109692380Y-86721190D01*
X109763809Y-86745000D01*
X109978095Y-87221190D02*
X109978095Y-86721190D01*
X110097142Y-86721190D01*
X110168571Y-86745000D01*
X110216190Y-86792619D01*
X110240000Y-86840238D01*
X110263809Y-86935476D01*
X110263809Y-87006904D01*
X110240000Y-87102142D01*
X110216190Y-87149761D01*
X110168571Y-87197380D01*
X110097142Y-87221190D01*
X109978095Y-87221190D01*
X110454285Y-87078333D02*
X110692380Y-87078333D01*
X110406666Y-87221190D02*
X110573333Y-86721190D01*
X110740000Y-87221190D01*
X110835238Y-86721190D02*
X111120952Y-86721190D01*
X110978095Y-87221190D02*
X110978095Y-86721190D01*
X111263809Y-87078333D02*
X111501904Y-87078333D01*
X111216190Y-87221190D02*
X111382857Y-86721190D01*
X111549523Y-87221190D01*
X109644761Y-85927380D02*
X109716190Y-85951190D01*
X109835238Y-85951190D01*
X109882857Y-85927380D01*
X109906666Y-85903571D01*
X109930476Y-85855952D01*
X109930476Y-85808333D01*
X109906666Y-85760714D01*
X109882857Y-85736904D01*
X109835238Y-85713095D01*
X109740000Y-85689285D01*
X109692380Y-85665476D01*
X109668571Y-85641666D01*
X109644761Y-85594047D01*
X109644761Y-85546428D01*
X109668571Y-85498809D01*
X109692380Y-85475000D01*
X109740000Y-85451190D01*
X109859047Y-85451190D01*
X109930476Y-85475000D01*
X110430476Y-85903571D02*
X110406666Y-85927380D01*
X110335238Y-85951190D01*
X110287619Y-85951190D01*
X110216190Y-85927380D01*
X110168571Y-85879761D01*
X110144761Y-85832142D01*
X110120952Y-85736904D01*
X110120952Y-85665476D01*
X110144761Y-85570238D01*
X110168571Y-85522619D01*
X110216190Y-85475000D01*
X110287619Y-85451190D01*
X110335238Y-85451190D01*
X110406666Y-85475000D01*
X110430476Y-85498809D01*
X110882857Y-85951190D02*
X110644761Y-85951190D01*
X110644761Y-85451190D01*
X111049523Y-85951190D02*
X111049523Y-85451190D01*
X111335238Y-85951190D02*
X111120952Y-85665476D01*
X111335238Y-85451190D02*
X111049523Y-85736904D01*
X109597142Y-84419285D02*
X109430476Y-84419285D01*
X109430476Y-84681190D02*
X109430476Y-84181190D01*
X109668571Y-84181190D01*
X109835238Y-84657380D02*
X109906666Y-84681190D01*
X110025714Y-84681190D01*
X110073333Y-84657380D01*
X110097142Y-84633571D01*
X110120952Y-84585952D01*
X110120952Y-84538333D01*
X110097142Y-84490714D01*
X110073333Y-84466904D01*
X110025714Y-84443095D01*
X109930476Y-84419285D01*
X109882857Y-84395476D01*
X109859047Y-84371666D01*
X109835238Y-84324047D01*
X109835238Y-84276428D01*
X109859047Y-84228809D01*
X109882857Y-84205000D01*
X109930476Y-84181190D01*
X110049523Y-84181190D01*
X110120952Y-84205000D01*
X110430476Y-84443095D02*
X110430476Y-84681190D01*
X110263809Y-84181190D02*
X110430476Y-84443095D01*
X110597142Y-84181190D01*
X110763809Y-84681190D02*
X110763809Y-84181190D01*
X111049523Y-84681190D01*
X111049523Y-84181190D01*
X111573333Y-84633571D02*
X111549523Y-84657380D01*
X111478095Y-84681190D01*
X111430476Y-84681190D01*
X111359047Y-84657380D01*
X111311428Y-84609761D01*
X111287619Y-84562142D01*
X111263809Y-84466904D01*
X111263809Y-84395476D01*
X111287619Y-84300238D01*
X111311428Y-84252619D01*
X111359047Y-84205000D01*
X111430476Y-84181190D01*
X111478095Y-84181190D01*
X111549523Y-84205000D01*
X111573333Y-84228809D01*
X109609047Y-82911190D02*
X109775714Y-83411190D01*
X109942380Y-82911190D01*
X110204285Y-82911190D02*
X110299523Y-82911190D01*
X110347142Y-82935000D01*
X110394761Y-82982619D01*
X110418571Y-83077857D01*
X110418571Y-83244523D01*
X110394761Y-83339761D01*
X110347142Y-83387380D01*
X110299523Y-83411190D01*
X110204285Y-83411190D01*
X110156666Y-83387380D01*
X110109047Y-83339761D01*
X110085238Y-83244523D01*
X110085238Y-83077857D01*
X110109047Y-82982619D01*
X110156666Y-82935000D01*
X110204285Y-82911190D01*
X110632857Y-82911190D02*
X110632857Y-83315952D01*
X110656666Y-83363571D01*
X110680476Y-83387380D01*
X110728095Y-83411190D01*
X110823333Y-83411190D01*
X110870952Y-83387380D01*
X110894761Y-83363571D01*
X110918571Y-83315952D01*
X110918571Y-82911190D01*
X111085238Y-82911190D02*
X111370952Y-82911190D01*
X111228095Y-83411190D02*
X111228095Y-82911190D01*
X109751904Y-81641190D02*
X110061428Y-81641190D01*
X109894761Y-81831666D01*
X109966190Y-81831666D01*
X110013809Y-81855476D01*
X110037619Y-81879285D01*
X110061428Y-81926904D01*
X110061428Y-82045952D01*
X110037619Y-82093571D01*
X110013809Y-82117380D01*
X109966190Y-82141190D01*
X109823333Y-82141190D01*
X109775714Y-82117380D01*
X109751904Y-82093571D01*
X110275714Y-82093571D02*
X110299523Y-82117380D01*
X110275714Y-82141190D01*
X110251904Y-82117380D01*
X110275714Y-82093571D01*
X110275714Y-82141190D01*
X110466190Y-81641190D02*
X110775714Y-81641190D01*
X110609047Y-81831666D01*
X110680476Y-81831666D01*
X110728095Y-81855476D01*
X110751904Y-81879285D01*
X110775714Y-81926904D01*
X110775714Y-82045952D01*
X110751904Y-82093571D01*
X110728095Y-82117380D01*
X110680476Y-82141190D01*
X110537619Y-82141190D01*
X110490000Y-82117380D01*
X110466190Y-82093571D01*
X110918571Y-81641190D02*
X111085238Y-82141190D01*
X111251904Y-81641190D01*
D11*
X110630285Y-92560714D02*
X110801714Y-92617857D01*
X111087428Y-92617857D01*
X111201714Y-92560714D01*
X111258857Y-92503571D01*
X111316000Y-92389285D01*
X111316000Y-92275000D01*
X111258857Y-92160714D01*
X111201714Y-92103571D01*
X111087428Y-92046428D01*
X110858857Y-91989285D01*
X110744571Y-91932142D01*
X110687428Y-91875000D01*
X110630285Y-91760714D01*
X110630285Y-91646428D01*
X110687428Y-91532142D01*
X110744571Y-91475000D01*
X110858857Y-91417857D01*
X111144571Y-91417857D01*
X111316000Y-91475000D01*
X112287428Y-92560714D02*
X112173142Y-92617857D01*
X111944571Y-92617857D01*
X111830285Y-92560714D01*
X111773142Y-92446428D01*
X111773142Y-91989285D01*
X111830285Y-91875000D01*
X111944571Y-91817857D01*
X112173142Y-91817857D01*
X112287428Y-91875000D01*
X112344571Y-91989285D01*
X112344571Y-92103571D01*
X111773142Y-92217857D01*
X112858857Y-91817857D02*
X112858857Y-92617857D01*
X112858857Y-91932142D02*
X112916000Y-91875000D01*
X113030285Y-91817857D01*
X113201714Y-91817857D01*
X113316000Y-91875000D01*
X113373142Y-91989285D01*
X113373142Y-92617857D01*
X113887428Y-92560714D02*
X114001714Y-92617857D01*
X114230285Y-92617857D01*
X114344571Y-92560714D01*
X114401714Y-92446428D01*
X114401714Y-92389285D01*
X114344571Y-92275000D01*
X114230285Y-92217857D01*
X114058857Y-92217857D01*
X113944571Y-92160714D01*
X113887428Y-92046428D01*
X113887428Y-91989285D01*
X113944571Y-91875000D01*
X114058857Y-91817857D01*
X114230285Y-91817857D01*
X114344571Y-91875000D01*
X115087428Y-92617857D02*
X114973142Y-92560714D01*
X114916000Y-92503571D01*
X114858857Y-92389285D01*
X114858857Y-92046428D01*
X114916000Y-91932142D01*
X114973142Y-91875000D01*
X115087428Y-91817857D01*
X115258857Y-91817857D01*
X115373142Y-91875000D01*
X115430285Y-91932142D01*
X115487428Y-92046428D01*
X115487428Y-92389285D01*
X115430285Y-92503571D01*
X115373142Y-92560714D01*
X115258857Y-92617857D01*
X115087428Y-92617857D01*
X116001714Y-92617857D02*
X116001714Y-91817857D01*
X116001714Y-92046428D02*
X116058857Y-91932142D01*
X116116000Y-91875000D01*
X116230285Y-91817857D01*
X116344571Y-91817857D01*
X117601714Y-91532142D02*
X117658857Y-91475000D01*
X117773142Y-91417857D01*
X118058857Y-91417857D01*
X118173142Y-91475000D01*
X118230285Y-91532142D01*
X118287428Y-91646428D01*
X118287428Y-91760714D01*
X118230285Y-91932142D01*
X117544571Y-92617857D01*
X118287428Y-92617857D01*
X118801714Y-92503571D02*
X118858857Y-92560714D01*
X118801714Y-92617857D01*
X118744571Y-92560714D01*
X118801714Y-92503571D01*
X118801714Y-92617857D01*
X119601714Y-91417857D02*
X119716000Y-91417857D01*
X119830285Y-91475000D01*
X119887428Y-91532142D01*
X119944571Y-91646428D01*
X120001714Y-91875000D01*
X120001714Y-92160714D01*
X119944571Y-92389285D01*
X119887428Y-92503571D01*
X119830285Y-92560714D01*
X119716000Y-92617857D01*
X119601714Y-92617857D01*
X119487428Y-92560714D01*
X119430285Y-92503571D01*
X119373142Y-92389285D01*
X119316000Y-92160714D01*
X119316000Y-91875000D01*
X119373142Y-91646428D01*
X119430285Y-91532142D01*
X119487428Y-91475000D01*
X119601714Y-91417857D01*
D12*
X122790000Y-80124721D02*
X122790000Y-80450279D01*
X123810000Y-80124721D02*
X123810000Y-80450279D01*
X111949721Y-77590000D02*
X112275279Y-77590000D01*
X111949721Y-78610000D02*
X112275279Y-78610000D01*
X122510000Y-87450279D02*
X122510000Y-87124721D01*
X121490000Y-87450279D02*
X121490000Y-87124721D01*
X123190000Y-87450279D02*
X123190000Y-87124721D01*
X124210000Y-87450279D02*
X124210000Y-87124721D01*
X124890000Y-87124721D02*
X124890000Y-87450279D01*
X125910000Y-87124721D02*
X125910000Y-87450279D01*
X124410000Y-83624721D02*
X124410000Y-83950279D01*
X123390000Y-83624721D02*
X123390000Y-83950279D01*
X126210000Y-83649721D02*
X126210000Y-83975279D01*
X125190000Y-83649721D02*
X125190000Y-83975279D01*
X121490000Y-83624721D02*
X121490000Y-83950279D01*
X122510000Y-83624721D02*
X122510000Y-83950279D01*
X132810000Y-81837221D02*
X132810000Y-82162779D01*
X131790000Y-81837221D02*
X131790000Y-82162779D01*
X128050279Y-76490000D02*
X127724721Y-76490000D01*
X128050279Y-77510000D02*
X127724721Y-77510000D01*
X111150000Y-73800000D02*
X111150000Y-75000000D01*
X113000000Y-73800000D02*
X111150000Y-73800000D01*
X113000000Y-75000000D02*
X111150000Y-75000000D01*
X120610000Y-83624721D02*
X120610000Y-83950279D01*
X119590000Y-83624721D02*
X119590000Y-83950279D01*
D13*
X111120000Y-80415000D02*
X111120000Y-90915000D01*
X111120000Y-90915000D02*
X116620000Y-90915000D01*
X116620000Y-90915000D02*
X116620000Y-80415000D01*
X116620000Y-80415000D02*
X111120000Y-80415000D01*
D11*
X117070000Y-81415000D02*
X117070000Y-81415000D01*
X117070000Y-81315000D02*
X117070000Y-81315000D01*
X117070000Y-81315000D02*
G75*
G02X117070000Y-81415000I0J-50000D01*
G01*
X117070000Y-81415000D02*
G75*
G02X117070000Y-81315000I0J50000D01*
G01*
D12*
X119170000Y-78970000D02*
X120500000Y-78970000D01*
X119170000Y-80300000D02*
X119170000Y-78970000D01*
X119170000Y-81570000D02*
X121830000Y-81570000D01*
X121830000Y-81570000D02*
X121830000Y-81630000D01*
X119170000Y-81570000D02*
X119170000Y-81630000D01*
X119170000Y-81630000D02*
X121830000Y-81630000D01*
X124910000Y-75863748D02*
X124910000Y-76386252D01*
X122690000Y-75863748D02*
X122690000Y-76386252D01*
X127724721Y-74590000D02*
X128050279Y-74590000D01*
X127724721Y-75610000D02*
X128050279Y-75610000D01*
X111949721Y-75690000D02*
X112275279Y-75690000D01*
X111949721Y-76710000D02*
X112275279Y-76710000D01*
X128575279Y-90690000D02*
X128249721Y-90690000D01*
X128575279Y-91710000D02*
X128249721Y-91710000D01*
X134410000Y-81837221D02*
X134410000Y-82162779D01*
X133390000Y-81837221D02*
X133390000Y-82162779D01*
X124790000Y-80124721D02*
X124790000Y-80450279D01*
X125810000Y-80124721D02*
X125810000Y-80450279D01*
X128050279Y-79410000D02*
X127724721Y-79410000D01*
X128050279Y-78390000D02*
X127724721Y-78390000D01*
X129990000Y-77624721D02*
X129990000Y-77950279D01*
X131010000Y-77624721D02*
X131010000Y-77950279D01*
X118125000Y-73035000D02*
X116175000Y-73035000D01*
X118125000Y-73035000D02*
X120075000Y-73035000D01*
X118125000Y-78155000D02*
X116175000Y-78155000D01*
X118125000Y-78155000D02*
X121575000Y-78155000D01*
D14*
X134610000Y-88334501D02*
X134864000Y-88334501D01*
X134610000Y-88715501D02*
X134610000Y-88334501D01*
X134864000Y-88715501D02*
X134610000Y-88715501D01*
X134864000Y-88334501D02*
X134864000Y-88715501D01*
X132639424Y-84220300D02*
X128960576Y-84220300D01*
X128960576Y-89579700D02*
X132639424Y-89579700D01*
X129402516Y-80276000D02*
X128797484Y-80276000D01*
X128223700Y-81462139D02*
X128223700Y-82137861D01*
X128797484Y-83324000D02*
X129402516Y-83324000D01*
X128872177Y-83526484D02*
G75*
G03X129100000Y-83628800I227823J202484D01*
G01*
D12*
X123300000Y-92000000D02*
X126500000Y-92000000D01*
X126500000Y-92000000D02*
X126500000Y-89200000D01*
X126500000Y-89200000D02*
X123300000Y-89200000D01*
X123300000Y-89200000D02*
X123300000Y-92000000D01*
X121690000Y-90750279D02*
X121690000Y-90424721D01*
X122710000Y-90750279D02*
X122710000Y-90424721D01*
X132370000Y-78930000D02*
X135030000Y-78930000D01*
X132370000Y-78870000D02*
X132370000Y-78930000D01*
X135030000Y-78870000D02*
X135030000Y-78930000D01*
X132370000Y-78870000D02*
X135030000Y-78870000D01*
X132370000Y-77600000D02*
X132370000Y-76270000D01*
X132370000Y-76270000D02*
X133700000Y-76270000D01*
D10*
X123233666Y-78664571D02*
X123209857Y-78688380D01*
X123138428Y-78712190D01*
X123090809Y-78712190D01*
X123019380Y-78688380D01*
X122971761Y-78640761D01*
X122947952Y-78593142D01*
X122924142Y-78497904D01*
X122924142Y-78426476D01*
X122947952Y-78331238D01*
X122971761Y-78283619D01*
X123019380Y-78236000D01*
X123090809Y-78212190D01*
X123138428Y-78212190D01*
X123209857Y-78236000D01*
X123233666Y-78259809D01*
X123709857Y-78712190D02*
X123424142Y-78712190D01*
X123567000Y-78712190D02*
X123567000Y-78212190D01*
X123519380Y-78283619D01*
X123471761Y-78331238D01*
X123424142Y-78355047D01*
X110025666Y-78283571D02*
X110001857Y-78307380D01*
X109930428Y-78331190D01*
X109882809Y-78331190D01*
X109811380Y-78307380D01*
X109763761Y-78259761D01*
X109739952Y-78212142D01*
X109716142Y-78116904D01*
X109716142Y-78045476D01*
X109739952Y-77950238D01*
X109763761Y-77902619D01*
X109811380Y-77855000D01*
X109882809Y-77831190D01*
X109930428Y-77831190D01*
X110001857Y-77855000D01*
X110025666Y-77878809D01*
X110216142Y-77878809D02*
X110239952Y-77855000D01*
X110287571Y-77831190D01*
X110406619Y-77831190D01*
X110454238Y-77855000D01*
X110478047Y-77878809D01*
X110501857Y-77926428D01*
X110501857Y-77974047D01*
X110478047Y-78045476D01*
X110192333Y-78331190D01*
X110501857Y-78331190D01*
X121836666Y-85903571D02*
X121812857Y-85927380D01*
X121741428Y-85951190D01*
X121693809Y-85951190D01*
X121622380Y-85927380D01*
X121574761Y-85879761D01*
X121550952Y-85832142D01*
X121527142Y-85736904D01*
X121527142Y-85665476D01*
X121550952Y-85570238D01*
X121574761Y-85522619D01*
X121622380Y-85475000D01*
X121693809Y-85451190D01*
X121741428Y-85451190D01*
X121812857Y-85475000D01*
X121836666Y-85498809D01*
X122003333Y-85451190D02*
X122312857Y-85451190D01*
X122146190Y-85641666D01*
X122217619Y-85641666D01*
X122265238Y-85665476D01*
X122289047Y-85689285D01*
X122312857Y-85736904D01*
X122312857Y-85855952D01*
X122289047Y-85903571D01*
X122265238Y-85927380D01*
X122217619Y-85951190D01*
X122074761Y-85951190D01*
X122027142Y-85927380D01*
X122003333Y-85903571D01*
X123614666Y-85903571D02*
X123590857Y-85927380D01*
X123519428Y-85951190D01*
X123471809Y-85951190D01*
X123400380Y-85927380D01*
X123352761Y-85879761D01*
X123328952Y-85832142D01*
X123305142Y-85736904D01*
X123305142Y-85665476D01*
X123328952Y-85570238D01*
X123352761Y-85522619D01*
X123400380Y-85475000D01*
X123471809Y-85451190D01*
X123519428Y-85451190D01*
X123590857Y-85475000D01*
X123614666Y-85498809D01*
X124043238Y-85617857D02*
X124043238Y-85951190D01*
X123924190Y-85427380D02*
X123805142Y-85784523D01*
X124114666Y-85784523D01*
X125265666Y-85903571D02*
X125241857Y-85927380D01*
X125170428Y-85951190D01*
X125122809Y-85951190D01*
X125051380Y-85927380D01*
X125003761Y-85879761D01*
X124979952Y-85832142D01*
X124956142Y-85736904D01*
X124956142Y-85665476D01*
X124979952Y-85570238D01*
X125003761Y-85522619D01*
X125051380Y-85475000D01*
X125122809Y-85451190D01*
X125170428Y-85451190D01*
X125241857Y-85475000D01*
X125265666Y-85498809D01*
X125718047Y-85451190D02*
X125479952Y-85451190D01*
X125456142Y-85689285D01*
X125479952Y-85665476D01*
X125527571Y-85641666D01*
X125646619Y-85641666D01*
X125694238Y-85665476D01*
X125718047Y-85689285D01*
X125741857Y-85736904D01*
X125741857Y-85855952D01*
X125718047Y-85903571D01*
X125694238Y-85927380D01*
X125646619Y-85951190D01*
X125527571Y-85951190D01*
X125479952Y-85927380D01*
X125456142Y-85903571D01*
X123741666Y-82347571D02*
X123717857Y-82371380D01*
X123646428Y-82395190D01*
X123598809Y-82395190D01*
X123527380Y-82371380D01*
X123479761Y-82323761D01*
X123455952Y-82276142D01*
X123432142Y-82180904D01*
X123432142Y-82109476D01*
X123455952Y-82014238D01*
X123479761Y-81966619D01*
X123527380Y-81919000D01*
X123598809Y-81895190D01*
X123646428Y-81895190D01*
X123717857Y-81919000D01*
X123741666Y-81942809D01*
X124170238Y-81895190D02*
X124075000Y-81895190D01*
X124027380Y-81919000D01*
X124003571Y-81942809D01*
X123955952Y-82014238D01*
X123932142Y-82109476D01*
X123932142Y-82299952D01*
X123955952Y-82347571D01*
X123979761Y-82371380D01*
X124027380Y-82395190D01*
X124122619Y-82395190D01*
X124170238Y-82371380D01*
X124194047Y-82347571D01*
X124217857Y-82299952D01*
X124217857Y-82180904D01*
X124194047Y-82133285D01*
X124170238Y-82109476D01*
X124122619Y-82085666D01*
X124027380Y-82085666D01*
X123979761Y-82109476D01*
X123955952Y-82133285D01*
X123932142Y-82180904D01*
X125519666Y-82347571D02*
X125495857Y-82371380D01*
X125424428Y-82395190D01*
X125376809Y-82395190D01*
X125305380Y-82371380D01*
X125257761Y-82323761D01*
X125233952Y-82276142D01*
X125210142Y-82180904D01*
X125210142Y-82109476D01*
X125233952Y-82014238D01*
X125257761Y-81966619D01*
X125305380Y-81919000D01*
X125376809Y-81895190D01*
X125424428Y-81895190D01*
X125495857Y-81919000D01*
X125519666Y-81942809D01*
X125686333Y-81895190D02*
X126019666Y-81895190D01*
X125805380Y-82395190D01*
X121963666Y-82347571D02*
X121939857Y-82371380D01*
X121868428Y-82395190D01*
X121820809Y-82395190D01*
X121749380Y-82371380D01*
X121701761Y-82323761D01*
X121677952Y-82276142D01*
X121654142Y-82180904D01*
X121654142Y-82109476D01*
X121677952Y-82014238D01*
X121701761Y-81966619D01*
X121749380Y-81919000D01*
X121820809Y-81895190D01*
X121868428Y-81895190D01*
X121939857Y-81919000D01*
X121963666Y-81942809D01*
X122201761Y-82395190D02*
X122297000Y-82395190D01*
X122344619Y-82371380D01*
X122368428Y-82347571D01*
X122416047Y-82276142D01*
X122439857Y-82180904D01*
X122439857Y-81990428D01*
X122416047Y-81942809D01*
X122392238Y-81919000D01*
X122344619Y-81895190D01*
X122249380Y-81895190D01*
X122201761Y-81919000D01*
X122177952Y-81942809D01*
X122154142Y-81990428D01*
X122154142Y-82109476D01*
X122177952Y-82157095D01*
X122201761Y-82180904D01*
X122249380Y-82204714D01*
X122344619Y-82204714D01*
X122392238Y-82180904D01*
X122416047Y-82157095D01*
X122439857Y-82109476D01*
X131758571Y-80188571D02*
X131734761Y-80212380D01*
X131663333Y-80236190D01*
X131615714Y-80236190D01*
X131544285Y-80212380D01*
X131496666Y-80164761D01*
X131472857Y-80117142D01*
X131449047Y-80021904D01*
X131449047Y-79950476D01*
X131472857Y-79855238D01*
X131496666Y-79807619D01*
X131544285Y-79760000D01*
X131615714Y-79736190D01*
X131663333Y-79736190D01*
X131734761Y-79760000D01*
X131758571Y-79783809D01*
X132234761Y-80236190D02*
X131949047Y-80236190D01*
X132091904Y-80236190D02*
X132091904Y-79736190D01*
X132044285Y-79807619D01*
X131996666Y-79855238D01*
X131949047Y-79879047D01*
X132710952Y-80236190D02*
X132425238Y-80236190D01*
X132568095Y-80236190D02*
X132568095Y-79736190D01*
X132520476Y-79807619D01*
X132472857Y-79855238D01*
X132425238Y-79879047D01*
X126162571Y-77283428D02*
X126186380Y-77307238D01*
X126210190Y-77378666D01*
X126210190Y-77426285D01*
X126186380Y-77497714D01*
X126138761Y-77545333D01*
X126091142Y-77569142D01*
X125995904Y-77592952D01*
X125924476Y-77592952D01*
X125829238Y-77569142D01*
X125781619Y-77545333D01*
X125734000Y-77497714D01*
X125710190Y-77426285D01*
X125710190Y-77378666D01*
X125734000Y-77307238D01*
X125757809Y-77283428D01*
X126210190Y-76807238D02*
X126210190Y-77092952D01*
X126210190Y-76950095D02*
X125710190Y-76950095D01*
X125781619Y-76997714D01*
X125829238Y-77045333D01*
X125853047Y-77092952D01*
X125757809Y-76616761D02*
X125734000Y-76592952D01*
X125710190Y-76545333D01*
X125710190Y-76426285D01*
X125734000Y-76378666D01*
X125757809Y-76354857D01*
X125805428Y-76331047D01*
X125853047Y-76331047D01*
X125924476Y-76354857D01*
X126210190Y-76640571D01*
X126210190Y-76331047D01*
X110120952Y-74521190D02*
X110120952Y-74021190D01*
X110240000Y-74021190D01*
X110311428Y-74045000D01*
X110359047Y-74092619D01*
X110382857Y-74140238D01*
X110406666Y-74235476D01*
X110406666Y-74306904D01*
X110382857Y-74402142D01*
X110359047Y-74449761D01*
X110311428Y-74497380D01*
X110240000Y-74521190D01*
X110120952Y-74521190D01*
X110882857Y-74521190D02*
X110597142Y-74521190D01*
X110740000Y-74521190D02*
X110740000Y-74021190D01*
X110692380Y-74092619D01*
X110644761Y-74140238D01*
X110597142Y-74164047D01*
X119725333Y-82133285D02*
X119558666Y-82133285D01*
X119558666Y-82395190D02*
X119558666Y-81895190D01*
X119796761Y-81895190D01*
X120153904Y-82133285D02*
X120225333Y-82157095D01*
X120249142Y-82180904D01*
X120272952Y-82228523D01*
X120272952Y-82299952D01*
X120249142Y-82347571D01*
X120225333Y-82371380D01*
X120177714Y-82395190D01*
X119987238Y-82395190D01*
X119987238Y-81895190D01*
X120153904Y-81895190D01*
X120201523Y-81919000D01*
X120225333Y-81942809D01*
X120249142Y-81990428D01*
X120249142Y-82038047D01*
X120225333Y-82085666D01*
X120201523Y-82109476D01*
X120153904Y-82133285D01*
X119987238Y-82133285D01*
X120749142Y-82395190D02*
X120463428Y-82395190D01*
X120606285Y-82395190D02*
X120606285Y-81895190D01*
X120558666Y-81966619D01*
X120511047Y-82014238D01*
X120463428Y-82038047D01*
D15*
X113424523Y-86088333D02*
X114331666Y-86088333D01*
X114513095Y-86148809D01*
X114634047Y-86269761D01*
X114694523Y-86451190D01*
X114694523Y-86572142D01*
X113545476Y-85544047D02*
X113485000Y-85483571D01*
X113424523Y-85362619D01*
X113424523Y-85060238D01*
X113485000Y-84939285D01*
X113545476Y-84878809D01*
X113666428Y-84818333D01*
X113787380Y-84818333D01*
X113968809Y-84878809D01*
X114694523Y-85604523D01*
X114694523Y-84818333D01*
D16*
X120166666Y-77422380D02*
X120166666Y-78136666D01*
X120119047Y-78279523D01*
X120023809Y-78374761D01*
X119880952Y-78422380D01*
X119785714Y-78422380D01*
X121071428Y-77755714D02*
X121071428Y-78422380D01*
X120833333Y-77374761D02*
X120595238Y-78089047D01*
X121214285Y-78089047D01*
X123658333Y-74112380D02*
X123182142Y-74112380D01*
X123182142Y-73112380D01*
X124515476Y-74112380D02*
X123944047Y-74112380D01*
X124229761Y-74112380D02*
X124229761Y-73112380D01*
X124134523Y-73255238D01*
X124039285Y-73350476D01*
X123944047Y-73398095D01*
D10*
X126210190Y-75140333D02*
X125972095Y-75307000D01*
X126210190Y-75426047D02*
X125710190Y-75426047D01*
X125710190Y-75235571D01*
X125734000Y-75187952D01*
X125757809Y-75164142D01*
X125805428Y-75140333D01*
X125876857Y-75140333D01*
X125924476Y-75164142D01*
X125948285Y-75187952D01*
X125972095Y-75235571D01*
X125972095Y-75426047D01*
X126210190Y-74664142D02*
X126210190Y-74949857D01*
X126210190Y-74807000D02*
X125710190Y-74807000D01*
X125781619Y-74854619D01*
X125829238Y-74902238D01*
X125853047Y-74949857D01*
X110025666Y-76426190D02*
X109859000Y-76188095D01*
X109739952Y-76426190D02*
X109739952Y-75926190D01*
X109930428Y-75926190D01*
X109978047Y-75950000D01*
X110001857Y-75973809D01*
X110025666Y-76021428D01*
X110025666Y-76092857D01*
X110001857Y-76140476D01*
X109978047Y-76164285D01*
X109930428Y-76188095D01*
X109739952Y-76188095D01*
X110216142Y-75973809D02*
X110239952Y-75950000D01*
X110287571Y-75926190D01*
X110406619Y-75926190D01*
X110454238Y-75950000D01*
X110478047Y-75973809D01*
X110501857Y-76021428D01*
X110501857Y-76069047D01*
X110478047Y-76140476D01*
X110192333Y-76426190D01*
X110501857Y-76426190D01*
X128329166Y-92856190D02*
X128162500Y-92618095D01*
X128043452Y-92856190D02*
X128043452Y-92356190D01*
X128233928Y-92356190D01*
X128281547Y-92380000D01*
X128305357Y-92403809D01*
X128329166Y-92451428D01*
X128329166Y-92522857D01*
X128305357Y-92570476D01*
X128281547Y-92594285D01*
X128233928Y-92618095D01*
X128043452Y-92618095D01*
X128757738Y-92522857D02*
X128757738Y-92856190D01*
X128638690Y-92332380D02*
X128519642Y-92689523D01*
X128829166Y-92689523D01*
X133901666Y-80236190D02*
X133735000Y-79998095D01*
X133615952Y-80236190D02*
X133615952Y-79736190D01*
X133806428Y-79736190D01*
X133854047Y-79760000D01*
X133877857Y-79783809D01*
X133901666Y-79831428D01*
X133901666Y-79902857D01*
X133877857Y-79950476D01*
X133854047Y-79974285D01*
X133806428Y-79998095D01*
X133615952Y-79998095D01*
X134330238Y-79736190D02*
X134235000Y-79736190D01*
X134187380Y-79760000D01*
X134163571Y-79783809D01*
X134115952Y-79855238D01*
X134092142Y-79950476D01*
X134092142Y-80140952D01*
X134115952Y-80188571D01*
X134139761Y-80212380D01*
X134187380Y-80236190D01*
X134282619Y-80236190D01*
X134330238Y-80212380D01*
X134354047Y-80188571D01*
X134377857Y-80140952D01*
X134377857Y-80021904D01*
X134354047Y-79974285D01*
X134330238Y-79950476D01*
X134282619Y-79926666D01*
X134187380Y-79926666D01*
X134139761Y-79950476D01*
X134115952Y-79974285D01*
X134092142Y-80021904D01*
X124884666Y-78712190D02*
X124718000Y-78474095D01*
X124598952Y-78712190D02*
X124598952Y-78212190D01*
X124789428Y-78212190D01*
X124837047Y-78236000D01*
X124860857Y-78259809D01*
X124884666Y-78307428D01*
X124884666Y-78378857D01*
X124860857Y-78426476D01*
X124837047Y-78450285D01*
X124789428Y-78474095D01*
X124598952Y-78474095D01*
X125051333Y-78212190D02*
X125384666Y-78212190D01*
X125170380Y-78712190D01*
X126464190Y-78950333D02*
X126226095Y-79117000D01*
X126464190Y-79236047D02*
X125964190Y-79236047D01*
X125964190Y-79045571D01*
X125988000Y-78997952D01*
X126011809Y-78974142D01*
X126059428Y-78950333D01*
X126130857Y-78950333D01*
X126178476Y-78974142D01*
X126202285Y-78997952D01*
X126226095Y-79045571D01*
X126226095Y-79236047D01*
X126178476Y-78664619D02*
X126154666Y-78712238D01*
X126130857Y-78736047D01*
X126083238Y-78759857D01*
X126059428Y-78759857D01*
X126011809Y-78736047D01*
X125988000Y-78712238D01*
X125964190Y-78664619D01*
X125964190Y-78569380D01*
X125988000Y-78521761D01*
X126011809Y-78497952D01*
X126059428Y-78474142D01*
X126083238Y-78474142D01*
X126130857Y-78497952D01*
X126154666Y-78521761D01*
X126178476Y-78569380D01*
X126178476Y-78664619D01*
X126202285Y-78712238D01*
X126226095Y-78736047D01*
X126273714Y-78759857D01*
X126368952Y-78759857D01*
X126416571Y-78736047D01*
X126440380Y-78712238D01*
X126464190Y-78664619D01*
X126464190Y-78569380D01*
X126440380Y-78521761D01*
X126416571Y-78497952D01*
X126368952Y-78474142D01*
X126273714Y-78474142D01*
X126226095Y-78497952D01*
X126202285Y-78521761D01*
X126178476Y-78569380D01*
X130345666Y-76172190D02*
X130179000Y-75934095D01*
X130059952Y-76172190D02*
X130059952Y-75672190D01*
X130250428Y-75672190D01*
X130298047Y-75696000D01*
X130321857Y-75719809D01*
X130345666Y-75767428D01*
X130345666Y-75838857D01*
X130321857Y-75886476D01*
X130298047Y-75910285D01*
X130250428Y-75934095D01*
X130059952Y-75934095D01*
X130583761Y-76172190D02*
X130679000Y-76172190D01*
X130726619Y-76148380D01*
X130750428Y-76124571D01*
X130798047Y-76053142D01*
X130821857Y-75957904D01*
X130821857Y-75767428D01*
X130798047Y-75719809D01*
X130774238Y-75696000D01*
X130726619Y-75672190D01*
X130631380Y-75672190D01*
X130583761Y-75696000D01*
X130559952Y-75719809D01*
X130536142Y-75767428D01*
X130536142Y-75886476D01*
X130559952Y-75934095D01*
X130583761Y-75957904D01*
X130631380Y-75981714D01*
X130726619Y-75981714D01*
X130774238Y-75957904D01*
X130798047Y-75934095D01*
X130821857Y-75886476D01*
D16*
X117348095Y-74382380D02*
X117348095Y-75191904D01*
X117395714Y-75287142D01*
X117443333Y-75334761D01*
X117538571Y-75382380D01*
X117729047Y-75382380D01*
X117824285Y-75334761D01*
X117871904Y-75287142D01*
X117919523Y-75191904D01*
X117919523Y-74382380D01*
X118919523Y-75382380D02*
X118348095Y-75382380D01*
X118633809Y-75382380D02*
X118633809Y-74382380D01*
X118538571Y-74525238D01*
X118443333Y-74620476D01*
X118348095Y-74668095D01*
D10*
X134874047Y-88626190D02*
X134874047Y-89030952D01*
X134897857Y-89078571D01*
X134921666Y-89102380D01*
X134969285Y-89126190D01*
X135064523Y-89126190D01*
X135112142Y-89102380D01*
X135135952Y-89078571D01*
X135159761Y-89030952D01*
X135159761Y-88626190D01*
X135374047Y-88673809D02*
X135397857Y-88650000D01*
X135445476Y-88626190D01*
X135564523Y-88626190D01*
X135612142Y-88650000D01*
X135635952Y-88673809D01*
X135659761Y-88721428D01*
X135659761Y-88769047D01*
X135635952Y-88840476D01*
X135350238Y-89126190D01*
X135659761Y-89126190D01*
X128524285Y-90253333D02*
X128762380Y-90253333D01*
X128476666Y-90396190D02*
X128643333Y-89896190D01*
X128810000Y-90396190D01*
X128976666Y-90396190D02*
X128976666Y-89896190D01*
X129095714Y-89896190D01*
X129167142Y-89920000D01*
X129214761Y-89967619D01*
X129238571Y-90015238D01*
X129262380Y-90110476D01*
X129262380Y-90181904D01*
X129238571Y-90277142D01*
X129214761Y-90324761D01*
X129167142Y-90372380D01*
X129095714Y-90396190D01*
X128976666Y-90396190D01*
X129714761Y-89896190D02*
X129476666Y-89896190D01*
X129452857Y-90134285D01*
X129476666Y-90110476D01*
X129524285Y-90086666D01*
X129643333Y-90086666D01*
X129690952Y-90110476D01*
X129714761Y-90134285D01*
X129738571Y-90181904D01*
X129738571Y-90300952D01*
X129714761Y-90348571D01*
X129690952Y-90372380D01*
X129643333Y-90396190D01*
X129524285Y-90396190D01*
X129476666Y-90372380D01*
X129452857Y-90348571D01*
X129976666Y-90396190D02*
X130071904Y-90396190D01*
X130119523Y-90372380D01*
X130143333Y-90348571D01*
X130190952Y-90277142D01*
X130214761Y-90181904D01*
X130214761Y-89991428D01*
X130190952Y-89943809D01*
X130167142Y-89920000D01*
X130119523Y-89896190D01*
X130024285Y-89896190D01*
X129976666Y-89920000D01*
X129952857Y-89943809D01*
X129929047Y-89991428D01*
X129929047Y-90110476D01*
X129952857Y-90158095D01*
X129976666Y-90181904D01*
X130024285Y-90205714D01*
X130119523Y-90205714D01*
X130167142Y-90181904D01*
X130190952Y-90158095D01*
X130214761Y-90110476D01*
X130381428Y-89896190D02*
X130690952Y-89896190D01*
X130524285Y-90086666D01*
X130595714Y-90086666D01*
X130643333Y-90110476D01*
X130667142Y-90134285D01*
X130690952Y-90181904D01*
X130690952Y-90300952D01*
X130667142Y-90348571D01*
X130643333Y-90372380D01*
X130595714Y-90396190D01*
X130452857Y-90396190D01*
X130405238Y-90372380D01*
X130381428Y-90348571D01*
X130881428Y-89943809D02*
X130905238Y-89920000D01*
X130952857Y-89896190D01*
X131071904Y-89896190D01*
X131119523Y-89920000D01*
X131143333Y-89943809D01*
X131167142Y-89991428D01*
X131167142Y-90039047D01*
X131143333Y-90110476D01*
X130857619Y-90396190D01*
X131167142Y-90396190D01*
X131476666Y-90158095D02*
X131476666Y-90396190D01*
X131310000Y-89896190D02*
X131476666Y-90158095D01*
X131643333Y-89896190D01*
X132095714Y-90396190D02*
X131929047Y-90158095D01*
X131810000Y-90396190D02*
X131810000Y-89896190D01*
X132000476Y-89896190D01*
X132048095Y-89920000D01*
X132071904Y-89943809D01*
X132095714Y-89991428D01*
X132095714Y-90062857D01*
X132071904Y-90110476D01*
X132048095Y-90134285D01*
X132000476Y-90158095D01*
X131810000Y-90158095D01*
X132310000Y-89896190D02*
X132310000Y-90300952D01*
X132333809Y-90348571D01*
X132357619Y-90372380D01*
X132405238Y-90396190D01*
X132500476Y-90396190D01*
X132548095Y-90372380D01*
X132571904Y-90348571D01*
X132595714Y-90300952D01*
X132595714Y-89896190D01*
X132786190Y-89896190D02*
X133119523Y-89896190D01*
X132786190Y-90396190D01*
X133119523Y-90396190D01*
D16*
X127726600Y-82578779D02*
X127726600Y-82816875D01*
X127488504Y-82721637D02*
X127726600Y-82816875D01*
X127964695Y-82721637D01*
X127583742Y-83007351D02*
X127726600Y-82816875D01*
X127869457Y-83007351D01*
X127726600Y-82578779D02*
X127726600Y-82816875D01*
X127488504Y-82721637D02*
X127726600Y-82816875D01*
X127964695Y-82721637D01*
X127583742Y-83007351D02*
X127726600Y-82816875D01*
X127869457Y-83007351D01*
D10*
X128651047Y-82530190D02*
X128651047Y-82934952D01*
X128674857Y-82982571D01*
X128698666Y-83006380D01*
X128746285Y-83030190D01*
X128841523Y-83030190D01*
X128889142Y-83006380D01*
X128912952Y-82982571D01*
X128936761Y-82934952D01*
X128936761Y-82530190D01*
X129127238Y-82530190D02*
X129436761Y-82530190D01*
X129270095Y-82720666D01*
X129341523Y-82720666D01*
X129389142Y-82744476D01*
X129412952Y-82768285D01*
X129436761Y-82815904D01*
X129436761Y-82934952D01*
X129412952Y-82982571D01*
X129389142Y-83006380D01*
X129341523Y-83030190D01*
X129198666Y-83030190D01*
X129151047Y-83006380D01*
X129127238Y-82982571D01*
X127678809Y-79736190D02*
X127774047Y-79736190D01*
X127821666Y-79760000D01*
X127869285Y-79807619D01*
X127893095Y-79902857D01*
X127893095Y-80069523D01*
X127869285Y-80164761D01*
X127821666Y-80212380D01*
X127774047Y-80236190D01*
X127678809Y-80236190D01*
X127631190Y-80212380D01*
X127583571Y-80164761D01*
X127559761Y-80069523D01*
X127559761Y-79902857D01*
X127583571Y-79807619D01*
X127631190Y-79760000D01*
X127678809Y-79736190D01*
X128107380Y-80236190D02*
X128107380Y-79736190D01*
X128297857Y-79736190D01*
X128345476Y-79760000D01*
X128369285Y-79783809D01*
X128393095Y-79831428D01*
X128393095Y-79902857D01*
X128369285Y-79950476D01*
X128345476Y-79974285D01*
X128297857Y-79998095D01*
X128107380Y-79998095D01*
X128583571Y-80093333D02*
X128821666Y-80093333D01*
X128535952Y-80236190D02*
X128702619Y-79736190D01*
X128869285Y-80236190D01*
X128988333Y-79736190D02*
X129297857Y-79736190D01*
X129131190Y-79926666D01*
X129202619Y-79926666D01*
X129250238Y-79950476D01*
X129274047Y-79974285D01*
X129297857Y-80021904D01*
X129297857Y-80140952D01*
X129274047Y-80188571D01*
X129250238Y-80212380D01*
X129202619Y-80236190D01*
X129059761Y-80236190D01*
X129012142Y-80212380D01*
X128988333Y-80188571D01*
X129488333Y-79783809D02*
X129512142Y-79760000D01*
X129559761Y-79736190D01*
X129678809Y-79736190D01*
X129726428Y-79760000D01*
X129750238Y-79783809D01*
X129774047Y-79831428D01*
X129774047Y-79879047D01*
X129750238Y-79950476D01*
X129464523Y-80236190D01*
X129774047Y-80236190D01*
X129964523Y-79783809D02*
X129988333Y-79760000D01*
X130035952Y-79736190D01*
X130155000Y-79736190D01*
X130202619Y-79760000D01*
X130226428Y-79783809D01*
X130250238Y-79831428D01*
X130250238Y-79879047D01*
X130226428Y-79950476D01*
X129940714Y-80236190D01*
X130250238Y-80236190D01*
D16*
X130547800Y-83904180D02*
X130547800Y-84142276D01*
X130309704Y-84047038D02*
X130547800Y-84142276D01*
X130785895Y-84047038D01*
X130404942Y-84332752D02*
X130547800Y-84142276D01*
X130690657Y-84332752D01*
X130547800Y-83904180D02*
X130547800Y-84142276D01*
X130309704Y-84047038D02*
X130547800Y-84142276D01*
X130785895Y-84047038D01*
X130404942Y-84332752D02*
X130547800Y-84142276D01*
X130690657Y-84332752D01*
D17*
X123690476Y-91890476D02*
X123690476Y-91690476D01*
X123785714Y-91890476D02*
X123785714Y-91690476D01*
X123900000Y-91890476D01*
X123900000Y-91690476D01*
X123995238Y-91890476D02*
X123995238Y-91690476D01*
X123995238Y-91785714D02*
X124109523Y-91785714D01*
X124109523Y-91890476D02*
X124109523Y-91690476D01*
X125747619Y-91700000D02*
X125728571Y-91690476D01*
X125700000Y-91690476D01*
X125671428Y-91700000D01*
X125652380Y-91719047D01*
X125642857Y-91738095D01*
X125633333Y-91776190D01*
X125633333Y-91804761D01*
X125642857Y-91842857D01*
X125652380Y-91861904D01*
X125671428Y-91880952D01*
X125700000Y-91890476D01*
X125719047Y-91890476D01*
X125747619Y-91880952D01*
X125757142Y-91871428D01*
X125757142Y-91804761D01*
X125719047Y-91804761D01*
X125842857Y-91890476D02*
X125842857Y-91690476D01*
X125957142Y-91890476D01*
X125957142Y-91690476D01*
X126052380Y-91890476D02*
X126052380Y-91690476D01*
X126100000Y-91690476D01*
X126128571Y-91700000D01*
X126147619Y-91719047D01*
X126157142Y-91738095D01*
X126166666Y-91776190D01*
X126166666Y-91804761D01*
X126157142Y-91842857D01*
X126147619Y-91861904D01*
X126128571Y-91880952D01*
X126100000Y-91890476D01*
X126052380Y-91890476D01*
X125700000Y-89290476D02*
X125738095Y-89290476D01*
X125757142Y-89300000D01*
X125776190Y-89319047D01*
X125785714Y-89357142D01*
X125785714Y-89423809D01*
X125776190Y-89461904D01*
X125757142Y-89480952D01*
X125738095Y-89490476D01*
X125700000Y-89490476D01*
X125680952Y-89480952D01*
X125661904Y-89461904D01*
X125652380Y-89423809D01*
X125652380Y-89357142D01*
X125661904Y-89319047D01*
X125680952Y-89300000D01*
X125700000Y-89290476D01*
X125871428Y-89290476D02*
X125871428Y-89452380D01*
X125880952Y-89471428D01*
X125890476Y-89480952D01*
X125909523Y-89490476D01*
X125947619Y-89490476D01*
X125966666Y-89480952D01*
X125976190Y-89471428D01*
X125985714Y-89452380D01*
X125985714Y-89290476D01*
X126052380Y-89290476D02*
X126166666Y-89290476D01*
X126109523Y-89490476D02*
X126109523Y-89290476D01*
X123633333Y-89290476D02*
X123700000Y-89490476D01*
X123766666Y-89290476D01*
X123947619Y-89471428D02*
X123938095Y-89480952D01*
X123909523Y-89490476D01*
X123890476Y-89490476D01*
X123861904Y-89480952D01*
X123842857Y-89461904D01*
X123833333Y-89442857D01*
X123823809Y-89404761D01*
X123823809Y-89376190D01*
X123833333Y-89338095D01*
X123842857Y-89319047D01*
X123861904Y-89300000D01*
X123890476Y-89290476D01*
X123909523Y-89290476D01*
X123938095Y-89300000D01*
X123947619Y-89309523D01*
X124147619Y-89471428D02*
X124138095Y-89480952D01*
X124109523Y-89490476D01*
X124090476Y-89490476D01*
X124061904Y-89480952D01*
X124042857Y-89461904D01*
X124033333Y-89442857D01*
X124023809Y-89404761D01*
X124023809Y-89376190D01*
X124033333Y-89338095D01*
X124042857Y-89319047D01*
X124061904Y-89300000D01*
X124090476Y-89290476D01*
X124109523Y-89290476D01*
X124138095Y-89300000D01*
X124147619Y-89309523D01*
D10*
X121836666Y-92888571D02*
X121812857Y-92912380D01*
X121741428Y-92936190D01*
X121693809Y-92936190D01*
X121622380Y-92912380D01*
X121574761Y-92864761D01*
X121550952Y-92817142D01*
X121527142Y-92721904D01*
X121527142Y-92650476D01*
X121550952Y-92555238D01*
X121574761Y-92507619D01*
X121622380Y-92460000D01*
X121693809Y-92436190D01*
X121741428Y-92436190D01*
X121812857Y-92460000D01*
X121836666Y-92483809D01*
X122122380Y-92650476D02*
X122074761Y-92626666D01*
X122050952Y-92602857D01*
X122027142Y-92555238D01*
X122027142Y-92531428D01*
X122050952Y-92483809D01*
X122074761Y-92460000D01*
X122122380Y-92436190D01*
X122217619Y-92436190D01*
X122265238Y-92460000D01*
X122289047Y-92483809D01*
X122312857Y-92531428D01*
X122312857Y-92555238D01*
X122289047Y-92602857D01*
X122265238Y-92626666D01*
X122217619Y-92650476D01*
X122122380Y-92650476D01*
X122074761Y-92674285D01*
X122050952Y-92698095D01*
X122027142Y-92745714D01*
X122027142Y-92840952D01*
X122050952Y-92888571D01*
X122074761Y-92912380D01*
X122122380Y-92936190D01*
X122217619Y-92936190D01*
X122265238Y-92912380D01*
X122289047Y-92888571D01*
X122312857Y-92840952D01*
X122312857Y-92745714D01*
X122289047Y-92698095D01*
X122265238Y-92674285D01*
X122217619Y-92650476D01*
D16*
X133366666Y-74722380D02*
X133366666Y-75436666D01*
X133319047Y-75579523D01*
X133223809Y-75674761D01*
X133080952Y-75722380D01*
X132985714Y-75722380D01*
X134366666Y-75722380D02*
X133795238Y-75722380D01*
X134080952Y-75722380D02*
X134080952Y-74722380D01*
X133985714Y-74865238D01*
X133890476Y-74960476D01*
X133795238Y-75008095D01*
M02*
