M48
; DRILL file {KiCad (5.1.5)-3} date 19/11/2020 18:48:46
; FORMAT={-:-/ absolute / inch / decimal}
; #@! TF.CreationDate,2020-11-19T18:48:46+01:00
; #@! TF.GenerationSoftware,Kicad,Pcbnew,(5.1.5)-3
; #@! TF.FileFunction,Plated,1,2,PTH
FMAT,2
INCH
T1C0.0157
T2C0.0217
T3C0.0394
%
G90
G05
T1
X4.445Y-3.115
X4.63Y-2.9
X4.77Y-3.505
X4.77Y-3.5974
X4.84Y-3.31
X4.895Y-3.17
X5.025Y-3.63
X5.14Y-3.135
X5.1732Y-3.4094
X5.1732Y-3.4491
X5.1732Y-3.4882
X5.1737Y-3.3696
X5.21Y-3.305
T2
X4.55Y-3.225
X4.55Y-3.2742
X4.55Y-3.3234
X4.55Y-3.3726
X4.55Y-3.4219
X4.55Y-3.4711
X4.55Y-3.5203
T3
X5.2638Y-3.0551
X4.7441Y-3.1614
T0
M30
