G04 #@! TF.GenerationSoftware,KiCad,Pcbnew,(5.1.5)-3*
G04 #@! TF.CreationDate,2020-11-19T18:47:54+01:00*
G04 #@! TF.ProjectId,Sensor_2.0,53656e73-6f72-45f3-922e-302e6b696361,rev?*
G04 #@! TF.SameCoordinates,Original*
G04 #@! TF.FileFunction,Copper,L2,Bot*
G04 #@! TF.FilePolarity,Positive*
%FSLAX46Y46*%
G04 Gerber Fmt 4.6, Leading zero omitted, Abs format (unit mm)*
G04 Created by KiCad (PCBNEW (5.1.5)-3) date 2020-11-19 18:47:54*
%MOMM*%
%LPD*%
G04 APERTURE LIST*
%ADD10C,0.100000*%
%ADD11C,1.100000*%
%ADD12R,1.700000X1.700000*%
%ADD13C,2.000000*%
%ADD14C,0.800000*%
%ADD15C,0.500000*%
%ADD16C,0.350000*%
%ADD17C,0.250000*%
%ADD18C,0.254000*%
G04 APERTURE END LIST*
D10*
G36*
X114967000Y-92567000D02*
G01*
X118967000Y-92567000D01*
X118967000Y-90567000D01*
X114967000Y-90567000D01*
X114967000Y-92567000D01*
G37*
D11*
X115570000Y-81915000D03*
X115570000Y-83165000D03*
X115570000Y-84415000D03*
X115570000Y-85665000D03*
X115570000Y-86915000D03*
X115570000Y-88165000D03*
X115570000Y-89415000D03*
D12*
X120500000Y-80300000D03*
X133700000Y-77600000D03*
D13*
X114967000Y-91567000D03*
X118967000Y-91567000D03*
D14*
X112903000Y-79121000D03*
X117602000Y-73660000D03*
X122936000Y-84074000D03*
X124333000Y-80518000D03*
X132334000Y-83947000D03*
X130556000Y-79629000D03*
X121158000Y-91375000D03*
X127635000Y-92202000D03*
X121158000Y-89027000D03*
X131400000Y-88600000D03*
X131400000Y-87606114D03*
X131400000Y-86600000D03*
X131412651Y-85587346D03*
D15*
X117475000Y-90170000D02*
X116840000Y-90170000D01*
X117475000Y-90805000D02*
X116840000Y-90170000D01*
D16*
X115570000Y-89415000D02*
X114420000Y-89415000D01*
X114420000Y-89415000D02*
X114300000Y-89535000D01*
X115570000Y-89415000D02*
X117355000Y-89415000D01*
X117355000Y-89415000D02*
X117475000Y-89535000D01*
X115570000Y-89415000D02*
X115570000Y-90805000D01*
D17*
X129849316Y-87615001D02*
X130834315Y-88600000D01*
X115570000Y-88165000D02*
X116119999Y-87615001D01*
X130834315Y-88600000D02*
X131400000Y-88600000D01*
X116119999Y-87615001D02*
X129849316Y-87615001D01*
X131300000Y-87700000D02*
X131310431Y-87689569D01*
X131310431Y-87689569D02*
X131310431Y-87606114D01*
X131000001Y-87206115D02*
X131400000Y-87606114D01*
X130966114Y-87206115D02*
X131000001Y-87206115D01*
X130674999Y-86915000D02*
X130966114Y-87206115D01*
X115570000Y-86915000D02*
X130674999Y-86915000D01*
X115570000Y-85665000D02*
X116265000Y-86360000D01*
X131000001Y-86200001D02*
X130334999Y-86200001D01*
X131400000Y-86600000D02*
X131000001Y-86200001D01*
X130334999Y-86200001D02*
X130175000Y-86360000D01*
X116265000Y-86360000D02*
X130175000Y-86360000D01*
X131400000Y-85700000D02*
X131412651Y-85687349D01*
X131412651Y-85612651D02*
X131500000Y-85700000D01*
X131412651Y-85587346D02*
X131412651Y-85612651D01*
X131412651Y-85687349D02*
X131500000Y-85700000D01*
X130846966Y-85587346D02*
X130709312Y-85725000D01*
X131412651Y-85587346D02*
X130846966Y-85587346D01*
X130709312Y-85725000D02*
X116840000Y-85725000D01*
X116119999Y-84964999D02*
X115570000Y-84415000D01*
X116445001Y-85330001D02*
X116445001Y-85290001D01*
X116445001Y-85290001D02*
X116119999Y-84964999D01*
X116840000Y-85725000D02*
X116445001Y-85330001D01*
D18*
G36*
X135649501Y-85471000D02*
G01*
X132461000Y-85471000D01*
X132461000Y-84709000D01*
X132458560Y-84684224D01*
X132451333Y-84660399D01*
X132439597Y-84638443D01*
X132423803Y-84619197D01*
X132404557Y-84603403D01*
X132382601Y-84591667D01*
X132358776Y-84584440D01*
X132334000Y-84582000D01*
X131663672Y-84582000D01*
X131514590Y-84552346D01*
X131310712Y-84552346D01*
X131161630Y-84582000D01*
X117270401Y-84582000D01*
X116708431Y-84066860D01*
X116620134Y-83853692D01*
X116577576Y-83790000D01*
X116620134Y-83726308D01*
X116709461Y-83510652D01*
X116755000Y-83281712D01*
X116755000Y-83048288D01*
X116709461Y-82819348D01*
X116620134Y-82603692D01*
X116577576Y-82540000D01*
X116620134Y-82476308D01*
X116709461Y-82260652D01*
X116755000Y-82031712D01*
X116755000Y-81798288D01*
X116709461Y-81569348D01*
X116620134Y-81353692D01*
X116490450Y-81159606D01*
X116325394Y-80994550D01*
X116131308Y-80864866D01*
X115915652Y-80775539D01*
X115686712Y-80730000D01*
X115453288Y-80730000D01*
X115224348Y-80775539D01*
X115008692Y-80864866D01*
X114814606Y-80994550D01*
X114649550Y-81159606D01*
X114519866Y-81353692D01*
X114430539Y-81569348D01*
X114385000Y-81798288D01*
X114385000Y-82031712D01*
X114430539Y-82260652D01*
X114519866Y-82476308D01*
X114562424Y-82540000D01*
X114519866Y-82603692D01*
X114430539Y-82819348D01*
X114385000Y-83048288D01*
X114385000Y-83192665D01*
X114378399Y-83194667D01*
X114356443Y-83206403D01*
X114337197Y-83222197D01*
X114321403Y-83241443D01*
X114309667Y-83263399D01*
X114302440Y-83287224D01*
X114300000Y-83312000D01*
X114300000Y-89027000D01*
X114302440Y-89051776D01*
X114309667Y-89075601D01*
X114321403Y-89097557D01*
X114337197Y-89116803D01*
X114356443Y-89132597D01*
X114378399Y-89144333D01*
X114402224Y-89151560D01*
X114414372Y-89152756D01*
X114389122Y-89262105D01*
X114381984Y-89495421D01*
X114420500Y-89725646D01*
X114503192Y-89943934D01*
X114537522Y-90008159D01*
X114756021Y-90049374D01*
X115390395Y-89415000D01*
X115376253Y-89400858D01*
X115431453Y-89345657D01*
X115453288Y-89350000D01*
X115686712Y-89350000D01*
X115708547Y-89345657D01*
X115763748Y-89400858D01*
X115749605Y-89415000D01*
X116383979Y-90049374D01*
X116602478Y-90008159D01*
X116698359Y-89795335D01*
X116713000Y-89731930D01*
X116713000Y-92660000D01*
X109968500Y-92660000D01*
X109968500Y-90228979D01*
X114935626Y-90228979D01*
X114976841Y-90447478D01*
X115189665Y-90543359D01*
X115417105Y-90595878D01*
X115650421Y-90603016D01*
X115880646Y-90564500D01*
X116098934Y-90481808D01*
X116163159Y-90447478D01*
X116204374Y-90228979D01*
X115570000Y-89594605D01*
X114935626Y-90228979D01*
X109968500Y-90228979D01*
X109968500Y-79450000D01*
X119011928Y-79450000D01*
X119011928Y-81150000D01*
X119024188Y-81274482D01*
X119060498Y-81394180D01*
X119119463Y-81504494D01*
X119198815Y-81601185D01*
X119295506Y-81680537D01*
X119405820Y-81739502D01*
X119525518Y-81775812D01*
X119650000Y-81788072D01*
X121350000Y-81788072D01*
X121474482Y-81775812D01*
X121594180Y-81739502D01*
X121704494Y-81680537D01*
X121801185Y-81601185D01*
X121880537Y-81504494D01*
X121939502Y-81394180D01*
X121975812Y-81274482D01*
X121988072Y-81150000D01*
X121988072Y-79450000D01*
X121975812Y-79325518D01*
X121939502Y-79205820D01*
X121880537Y-79095506D01*
X121801185Y-78998815D01*
X121704494Y-78919463D01*
X121594180Y-78860498D01*
X121474482Y-78824188D01*
X121350000Y-78811928D01*
X119650000Y-78811928D01*
X119525518Y-78824188D01*
X119405820Y-78860498D01*
X119295506Y-78919463D01*
X119198815Y-78998815D01*
X119119463Y-79095506D01*
X119060498Y-79205820D01*
X119024188Y-79325518D01*
X119011928Y-79450000D01*
X109968500Y-79450000D01*
X109968500Y-76750000D01*
X132211928Y-76750000D01*
X132211928Y-78450000D01*
X132224188Y-78574482D01*
X132260498Y-78694180D01*
X132319463Y-78804494D01*
X132398815Y-78901185D01*
X132495506Y-78980537D01*
X132605820Y-79039502D01*
X132725518Y-79075812D01*
X132850000Y-79088072D01*
X134550000Y-79088072D01*
X134674482Y-79075812D01*
X134794180Y-79039502D01*
X134904494Y-78980537D01*
X135001185Y-78901185D01*
X135080537Y-78804494D01*
X135139502Y-78694180D01*
X135175812Y-78574482D01*
X135188072Y-78450000D01*
X135188072Y-76750000D01*
X135175812Y-76625518D01*
X135139502Y-76505820D01*
X135080537Y-76395506D01*
X135001185Y-76298815D01*
X134904494Y-76219463D01*
X134794180Y-76160498D01*
X134674482Y-76124188D01*
X134550000Y-76111928D01*
X132850000Y-76111928D01*
X132725518Y-76124188D01*
X132605820Y-76160498D01*
X132495506Y-76219463D01*
X132398815Y-76298815D01*
X132319463Y-76395506D01*
X132260498Y-76505820D01*
X132224188Y-76625518D01*
X132211928Y-76750000D01*
X109968500Y-76750000D01*
X109968500Y-73075000D01*
X135649500Y-73075000D01*
X135649501Y-85471000D01*
G37*
X135649501Y-85471000D02*
X132461000Y-85471000D01*
X132461000Y-84709000D01*
X132458560Y-84684224D01*
X132451333Y-84660399D01*
X132439597Y-84638443D01*
X132423803Y-84619197D01*
X132404557Y-84603403D01*
X132382601Y-84591667D01*
X132358776Y-84584440D01*
X132334000Y-84582000D01*
X131663672Y-84582000D01*
X131514590Y-84552346D01*
X131310712Y-84552346D01*
X131161630Y-84582000D01*
X117270401Y-84582000D01*
X116708431Y-84066860D01*
X116620134Y-83853692D01*
X116577576Y-83790000D01*
X116620134Y-83726308D01*
X116709461Y-83510652D01*
X116755000Y-83281712D01*
X116755000Y-83048288D01*
X116709461Y-82819348D01*
X116620134Y-82603692D01*
X116577576Y-82540000D01*
X116620134Y-82476308D01*
X116709461Y-82260652D01*
X116755000Y-82031712D01*
X116755000Y-81798288D01*
X116709461Y-81569348D01*
X116620134Y-81353692D01*
X116490450Y-81159606D01*
X116325394Y-80994550D01*
X116131308Y-80864866D01*
X115915652Y-80775539D01*
X115686712Y-80730000D01*
X115453288Y-80730000D01*
X115224348Y-80775539D01*
X115008692Y-80864866D01*
X114814606Y-80994550D01*
X114649550Y-81159606D01*
X114519866Y-81353692D01*
X114430539Y-81569348D01*
X114385000Y-81798288D01*
X114385000Y-82031712D01*
X114430539Y-82260652D01*
X114519866Y-82476308D01*
X114562424Y-82540000D01*
X114519866Y-82603692D01*
X114430539Y-82819348D01*
X114385000Y-83048288D01*
X114385000Y-83192665D01*
X114378399Y-83194667D01*
X114356443Y-83206403D01*
X114337197Y-83222197D01*
X114321403Y-83241443D01*
X114309667Y-83263399D01*
X114302440Y-83287224D01*
X114300000Y-83312000D01*
X114300000Y-89027000D01*
X114302440Y-89051776D01*
X114309667Y-89075601D01*
X114321403Y-89097557D01*
X114337197Y-89116803D01*
X114356443Y-89132597D01*
X114378399Y-89144333D01*
X114402224Y-89151560D01*
X114414372Y-89152756D01*
X114389122Y-89262105D01*
X114381984Y-89495421D01*
X114420500Y-89725646D01*
X114503192Y-89943934D01*
X114537522Y-90008159D01*
X114756021Y-90049374D01*
X115390395Y-89415000D01*
X115376253Y-89400858D01*
X115431453Y-89345657D01*
X115453288Y-89350000D01*
X115686712Y-89350000D01*
X115708547Y-89345657D01*
X115763748Y-89400858D01*
X115749605Y-89415000D01*
X116383979Y-90049374D01*
X116602478Y-90008159D01*
X116698359Y-89795335D01*
X116713000Y-89731930D01*
X116713000Y-92660000D01*
X109968500Y-92660000D01*
X109968500Y-90228979D01*
X114935626Y-90228979D01*
X114976841Y-90447478D01*
X115189665Y-90543359D01*
X115417105Y-90595878D01*
X115650421Y-90603016D01*
X115880646Y-90564500D01*
X116098934Y-90481808D01*
X116163159Y-90447478D01*
X116204374Y-90228979D01*
X115570000Y-89594605D01*
X114935626Y-90228979D01*
X109968500Y-90228979D01*
X109968500Y-79450000D01*
X119011928Y-79450000D01*
X119011928Y-81150000D01*
X119024188Y-81274482D01*
X119060498Y-81394180D01*
X119119463Y-81504494D01*
X119198815Y-81601185D01*
X119295506Y-81680537D01*
X119405820Y-81739502D01*
X119525518Y-81775812D01*
X119650000Y-81788072D01*
X121350000Y-81788072D01*
X121474482Y-81775812D01*
X121594180Y-81739502D01*
X121704494Y-81680537D01*
X121801185Y-81601185D01*
X121880537Y-81504494D01*
X121939502Y-81394180D01*
X121975812Y-81274482D01*
X121988072Y-81150000D01*
X121988072Y-79450000D01*
X121975812Y-79325518D01*
X121939502Y-79205820D01*
X121880537Y-79095506D01*
X121801185Y-78998815D01*
X121704494Y-78919463D01*
X121594180Y-78860498D01*
X121474482Y-78824188D01*
X121350000Y-78811928D01*
X119650000Y-78811928D01*
X119525518Y-78824188D01*
X119405820Y-78860498D01*
X119295506Y-78919463D01*
X119198815Y-78998815D01*
X119119463Y-79095506D01*
X119060498Y-79205820D01*
X119024188Y-79325518D01*
X119011928Y-79450000D01*
X109968500Y-79450000D01*
X109968500Y-76750000D01*
X132211928Y-76750000D01*
X132211928Y-78450000D01*
X132224188Y-78574482D01*
X132260498Y-78694180D01*
X132319463Y-78804494D01*
X132398815Y-78901185D01*
X132495506Y-78980537D01*
X132605820Y-79039502D01*
X132725518Y-79075812D01*
X132850000Y-79088072D01*
X134550000Y-79088072D01*
X134674482Y-79075812D01*
X134794180Y-79039502D01*
X134904494Y-78980537D01*
X135001185Y-78901185D01*
X135080537Y-78804494D01*
X135139502Y-78694180D01*
X135175812Y-78574482D01*
X135188072Y-78450000D01*
X135188072Y-76750000D01*
X135175812Y-76625518D01*
X135139502Y-76505820D01*
X135080537Y-76395506D01*
X135001185Y-76298815D01*
X134904494Y-76219463D01*
X134794180Y-76160498D01*
X134674482Y-76124188D01*
X134550000Y-76111928D01*
X132850000Y-76111928D01*
X132725518Y-76124188D01*
X132605820Y-76160498D01*
X132495506Y-76219463D01*
X132398815Y-76298815D01*
X132319463Y-76395506D01*
X132260498Y-76505820D01*
X132224188Y-76625518D01*
X132211928Y-76750000D01*
X109968500Y-76750000D01*
X109968500Y-73075000D01*
X135649500Y-73075000D01*
X135649501Y-85471000D01*
G36*
X135649501Y-92660000D02*
G01*
X117348000Y-92660000D01*
X117348000Y-88646000D01*
X129110715Y-88646000D01*
X130217626Y-89629921D01*
X130237765Y-89644558D01*
X130260373Y-89654984D01*
X130284581Y-89660800D01*
X130302000Y-89662000D01*
X132334000Y-89662000D01*
X132358776Y-89659560D01*
X132382601Y-89652333D01*
X132404557Y-89640597D01*
X132423803Y-89624803D01*
X132439597Y-89605557D01*
X132451333Y-89583601D01*
X132458560Y-89559776D01*
X132461000Y-89535000D01*
X132461000Y-86360000D01*
X135649501Y-86360000D01*
X135649501Y-92660000D01*
G37*
X135649501Y-92660000D02*
X117348000Y-92660000D01*
X117348000Y-88646000D01*
X129110715Y-88646000D01*
X130217626Y-89629921D01*
X130237765Y-89644558D01*
X130260373Y-89654984D01*
X130284581Y-89660800D01*
X130302000Y-89662000D01*
X132334000Y-89662000D01*
X132358776Y-89659560D01*
X132382601Y-89652333D01*
X132404557Y-89640597D01*
X132423803Y-89624803D01*
X132439597Y-89605557D01*
X132451333Y-89583601D01*
X132458560Y-89559776D01*
X132461000Y-89535000D01*
X132461000Y-86360000D01*
X135649501Y-86360000D01*
X135649501Y-92660000D01*
M02*
